<?xml version="1.0" encoding="UTF-8"?>
<svg version="1.1" xmlns="http://www.w3.org/2000/svg" width="1024" height="1024">
    <path d="M0 0 C2.32782329 1.1149469 2.32782329 1.1149469 4.46069336 0.99047852 C5.46801776 1.98310007 6.46682128 2.98438792 7.46069336 3.99047852 C8.78428739 4.828068 10.13925761 5.61731938 11.51538086 6.36547852 C12.29526367 6.79344727 13.07514648 7.22141602 13.87866211 7.66235352 C14.68948242 8.10063477 15.50030273 8.53891602 16.33569336 8.99047852 C17.93765679 9.86474427 19.53923 10.73972549 21.14038086 11.61547852 C21.89158203 12.02540039 22.6427832 12.43532227 23.41674805 12.85766602 C25.80003961 14.17855384 28.1329535 15.57436301 30.46069336 16.99047852 C31.12069336 17.32047852 31.78069336 17.65047852 32.46069336 17.99047852 C33.04206055 18.58086914 33.62342773 19.17125977 34.22241211 19.77954102 C36.74030006 22.26666942 39.42430821 24.26554556 42.27319336 26.36547852 C52.94337424 34.40886941 63.03100149 43.60426557 71.46069336 53.99047852 C72.11682617 54.7471582 72.77295898 55.50383789 73.44897461 56.28344727 C89.9700589 75.68031533 105.19133758 100.5492223 113.38964844 124.73046875 C113.74309326 125.47627197 114.09653809 126.2220752 114.46069336 126.99047852 C117.13655748 127.86410539 119.46278536 128.41128627 122.21069336 128.86547852 C138.05917127 132.06703876 151.54442336 139.86577375 161.21069336 153.05297852 C173.46713885 171.89891084 178.81524869 193.86689429 174.80444336 216.24438477 C170.61317724 233.56948912 161.45891482 249.00797549 146.46069336 258.99047852 C139.73781543 262.24520513 132.7406106 261.96092826 125.67163086 259.86938477 C123.21468334 259.00294936 120.81418192 258.05542376 118.39428711 257.08422852 C115.51400572 255.81580586 115.51400572 255.81580586 112.46069336 255.99047852 C112.04819336 255.53672852 111.63569336 255.08297852 111.21069336 254.61547852 C108.66986107 252.25613425 105.75598834 251.90583823 102.46069336 250.99047852 C102.13069336 250.33047852 101.80069336 249.67047852 101.46069336 248.99047852 C99.29173724 248.21485053 99.29173724 248.21485053 96.64819336 247.61547852 C92.6606932 246.63774583 88.82316566 245.43224882 84.94897461 244.08422852 C30.69366745 225.83300284 -24.22459517 233.60918028 -76.25415039 254.24047852 C-110.17685085 267.66860392 -141.71056386 269.06584454 -176.52246094 258.62036133 C-220.7394756 245.42501976 -269.23339585 246.04546031 -310.65600586 268.1184082 C-311.32776855 268.47580078 -311.99953125 268.83319336 -312.69165039 269.20141602 C-313.26778076 269.52158691 -313.84391113 269.84175781 -314.4375 270.17163086 C-317.40576644 271.32804457 -320.38921193 271.6153268 -323.53930664 271.99047852 C-323.6144751 273.37831543 -323.6144751 273.37831543 -323.69116211 274.79418945 C-324.22340351 284.50970713 -324.79419592 294.22225449 -325.409729 303.93286133 C-325.5258889 305.77741261 -325.63808156 307.62221273 -325.74975586 309.46704102 C-325.92496327 312.22756077 -326.13039528 314.98334147 -326.35180664 317.74047852 C-326.42020752 318.89628418 -326.42020752 318.89628418 -326.48999023 320.07543945 C-326.81065852 323.63106111 -327.52493875 326.54304525 -329.48852539 329.50610352 C-333.1995985 332.52818098 -335.10770538 332.80941724 -339.78149414 332.50610352 C-344.93225119 331.54307245 -349.37622506 329.31394152 -354.03930664 326.99047852 C-356.31522838 325.89647898 -358.59127705 324.8027435 -360.86743164 323.70922852 C-362.09994413 323.10915419 -363.33236326 322.50888806 -364.56469727 321.90844727 C-368.8825329 319.81386536 -373.2328204 317.79118281 -377.58618164 315.77172852 C-379.89500583 314.69799263 -382.20362231 313.62381118 -384.51220703 312.54956055 C-386.02078849 311.84791732 -387.52973605 311.14706069 -389.0390625 310.44702148 C-391.17170187 309.45603125 -393.30114635 308.45846591 -395.42993164 307.45922852 C-396.0601825 307.16794067 -396.69043335 306.87665283 -397.33978271 306.57653809 C-407.52585179 301.77222277 -413.36291702 295.85894722 -418.72680664 286.17797852 C-419.58846042 284.62598651 -420.45660251 283.07757273 -421.33227539 281.53344727 C-421.70892334 280.85306396 -422.08557129 280.17268066 -422.47363281 279.47167969 C-422.82530518 278.9828833 -423.17697754 278.49408691 -423.53930664 277.99047852 C-424.19930664 277.99047852 -424.85930664 277.99047852 -425.53930664 277.99047852 C-426.53930664 274.99047852 -426.53930664 274.99047852 -426.53930664 272.99047852 C-427.50059956 271.13655645 -428.50732496 269.30600184 -429.53930664 267.49047852 C-432.53930664 262.21270074 -432.53930664 262.21270074 -432.53930664 259.99047852 C-433.19930664 259.66047852 -433.85930664 259.33047852 -434.53930664 258.99047852 C-435.91883906 256.42472395 -437.2179477 253.86444872 -438.47680664 251.24047852 C-441.67458297 244.42674971 -441.67458297 244.42674971 -445.53930664 237.99047852 C-446.19930664 237.99047852 -446.85930664 237.99047852 -447.53930664 237.99047852 C-447.8602832 236.35079102 -447.8602832 236.35079102 -448.18774414 234.67797852 C-449.60631523 229.00369415 -452.38708458 224.10084906 -455.16430664 218.99047852 C-455.67993164 218.0249707 -456.19555664 217.05946289 -456.72680664 216.06469727 C-457.98986736 213.70230591 -459.26079088 211.3445305 -460.53930664 208.99047852 C-461.19930664 208.99047852 -461.85930664 208.99047852 -462.53930664 208.99047852 C-462.63211914 208.32661133 -462.72493164 207.66274414 -462.82055664 206.97875977 C-463.91608045 202.42400046 -466.00230825 198.35400927 -468.01196289 194.13696289 C-470.70221632 188.2555511 -472.76640578 182.01838855 -470.53930664 175.61547852 C-464.32693759 159.35698115 -449.08490391 149.10021132 -433.76586914 142.22875977 C-430.53930664 140.99047852 -430.53930664 140.99047852 -427.53930664 140.99047852 C-427.20930664 140.33047852 -426.87930664 139.67047852 -426.53930664 138.99047852 C-422.5979259 138.01153168 -418.55828522 137.55757365 -414.53930664 136.99047852 C-413.7671582 136.85254883 -412.99500977 136.71461914 -412.19946289 136.57250977 C-404.43762221 135.34391301 -396.38603617 136.35205668 -389.16430664 139.42797852 C-381.60742578 146.80493365 -376.8198692 157.4275196 -372.53930664 166.99047852 C-372.53930664 167.65047852 -372.53930664 168.31047852 -372.53930664 168.99047852 C-371.87930664 169.32047852 -371.21930664 169.65047852 -370.53930664 169.99047852 C-369.8177124 171.63410985 -369.14579243 173.30098238 -368.53930664 174.99047852 C-364.42471774 172.62381648 -360.61459781 169.91470141 -356.78930664 167.11547852 C-351.56752011 163.3321931 -346.31312239 159.89266104 -340.53930664 156.99047852 C-341.19930664 156.00047852 -341.85930664 155.01047852 -342.53930664 153.99047852 C-341.87930664 153.99047852 -341.21930664 153.99047852 -340.53930664 153.99047852 C-340.39420913 149.57415674 -340.30529846 145.15844659 -340.22680664 140.74047852 C-340.18491211 139.4862207 -340.14301758 138.23196289 -340.09985352 136.93969727 C-340.08374023 135.73442383 -340.06762695 134.52915039 -340.05102539 133.28735352 C-340.02484131 132.17714844 -339.99865723 131.06694336 -339.97167969 129.9230957 C-340.72363448 126.03815764 -342.34433585 125.17099549 -345.53930664 122.99047852 C-349.53276907 117.48225448 -349.21273517 111.50550805 -348.53930664 104.99047852 C-345.48460141 89.35038773 -336.94435507 73.71153371 -327.53930664 60.99047852 C-326.96567383 60.20672852 -326.39204102 59.42297852 -325.80102539 58.61547852 C-321.38635869 52.76985089 -316.54493344 47.33339104 -311.53930664 41.99047852 C-310.85553955 41.24773682 -310.85553955 41.24773682 -310.15795898 40.48999023 C-297.68298613 27.02407373 -282.85091937 16.37536918 -266.53930664 7.99047852 C-265.80470215 7.60827148 -265.07009766 7.22606445 -264.31323242 6.83227539 C-228.36385355 -11.66644679 -187.7578872 -21.27350936 -147.53930664 -24.00952148 C-146.67273438 -24.07123535 -145.80616211 -24.13294922 -144.91333008 -24.1965332 C-94.99395624 -27.56801366 -45.75550177 -20.30206277 0 0 Z M-77.97680664 151.61547852 C-80.64713734 155.67438117 -80.94227606 158.07425162 -80.53930664 162.99047852 C-79.15720777 166.85245765 -77.30916404 169.37854059 -74.10180664 171.92797852 C-67.41357539 173.92271415 -60.35299539 174.32327845 -53.97680664 171.30297852 C-53.17243164 170.53985352 -52.36805664 169.77672852 -51.53930664 168.99047852 C-50.75555664 168.28922852 -49.97180664 167.58797852 -49.16430664 166.86547852 C-46.74378021 162.58300867 -46.54549925 158.78765402 -47.53930664 153.99047852 C-49.60350264 150.24612298 -52.24475902 147.79519731 -55.85180664 145.55297852 C-64.55917146 143.73050681 -71.7674333 144.92846107 -77.97680664 151.61547852 Z M-220.41430664 158.74047852 C-222.07770814 162.06728152 -222.65303132 165.30864188 -222.53930664 168.99047852 C-220.68275634 174.35384604 -217.59431775 177.46297296 -212.53930664 179.99047852 C-206.27170303 180.52302 -200.89473177 180.64784202 -195.53930664 176.99047852 C-191.78398006 173.7426285 -190.66104541 171.63395185 -190.28930664 166.61547852 C-190.64805824 161.41358038 -192.230855 159.13936289 -196.10180664 155.74047852 C-204.10875573 149.99189968 -213.58414873 152.36566447 -220.41430664 158.74047852 Z "
          fill="#FDDBAE" transform="translate(634.539306640625,343.009521484375)"/>
    <path d="M0 0 C2.32782329 1.1149469 2.32782329 1.1149469 4.46069336 0.99047852 C5.46801776 1.98310007 6.46682128 2.98438792 7.46069336 3.99047852 C8.78428739 4.828068 10.13925761 5.61731938 11.51538086 6.36547852 C12.29526367 6.79344727 13.07514648 7.22141602 13.87866211 7.66235352 C14.68948242 8.10063477 15.50030273 8.53891602 16.33569336 8.99047852 C17.93765679 9.86474427 19.53923 10.73972549 21.14038086 11.61547852 C21.89158203 12.02540039 22.6427832 12.43532227 23.41674805 12.85766602 C25.80003961 14.17855384 28.1329535 15.57436301 30.46069336 16.99047852 C31.12069336 17.32047852 31.78069336 17.65047852 32.46069336 17.99047852 C33.04206055 18.58086914 33.62342773 19.17125977 34.22241211 19.77954102 C36.74030006 22.26666942 39.42430821 24.26554556 42.27319336 26.36547852 C52.94337424 34.40886941 63.03100149 43.60426557 71.46069336 53.99047852 C72.11682617 54.7471582 72.77295898 55.50383789 73.44897461 56.28344727 C89.9700589 75.68031533 105.19133758 100.5492223 113.38964844 124.73046875 C113.74309326 125.47627197 114.09653809 126.2220752 114.46069336 126.99047852 C117.13655748 127.86410539 119.46278536 128.41128627 122.21069336 128.86547852 C138.05917127 132.06703876 151.54442336 139.86577375 161.21069336 153.05297852 C173.46713885 171.89891084 178.81524869 193.86689429 174.80444336 216.24438477 C170.61317724 233.56948912 161.45891482 249.00797549 146.46069336 258.99047852 C139.73781543 262.24520513 132.7406106 261.96092826 125.67163086 259.86938477 C123.21468334 259.00294936 120.81418192 258.05542376 118.39428711 257.08422852 C115.51400572 255.81580586 115.51400572 255.81580586 112.46069336 255.99047852 C110.89819336 254.61547852 110.89819336 254.61547852 109.46069336 252.99047852 C108.80069336 252.33047852 108.14069336 251.67047852 107.46069336 250.99047852 C108.49967773 250.75973633 109.53866211 250.52899414 110.60913086 250.29125977 C125.50431684 246.86395385 137.26004436 241.9057792 146.27319336 228.86547852 C154.72033191 214.79344724 156.67849183 196.73808025 152.83569336 180.92797852 C148.98707558 166.33761842 141.52976198 154.03298228 128.46069336 145.99047852 C121.40446082 142.56595115 112.77053314 142.95126378 105.26928711 144.76000977 C88.8066868 150.96362613 74.42725739 165.87117948 64.46069336 179.99047852 C64.13069336 179.99047852 63.80069336 179.99047852 63.46069336 179.99047852 C63.28006348 179.02561523 63.09943359 178.06075195 62.91333008 177.06665039 C49.49779283 100.79883376 49.49779283 100.79883376 10.46069336 35.99047852 C9.78651367 35.2930957 9.11233398 34.59571289 8.41772461 33.87719727 C-1.27615325 24.51069239 -13.64139618 19.29651964 -26.53930664 15.99047852 C-26.01208008 16.24829102 -25.48485352 16.50610352 -24.94165039 16.77172852 C-7.19906936 25.7728428 8.39358467 36.44779407 18.46069336 53.99047852 C18.89897461 54.73297852 19.33725586 55.47547852 19.78881836 56.24047852 C23.56347364 63.47080411 23.7917472 71.68412786 21.39819336 79.42797852 C17.83533956 84.14013999 13.34417255 88.58965014 7.46069336 89.99047852 C0.48145016 90.88203852 -5.42634103 89.43855729 -11.53930664 85.99047852 C-14.81895779 83.38391473 -17.46045447 80.34249275 -20.06665039 77.07641602 C-28.27050852 67.00713293 -39.90829882 59.25008949 -52.91430664 57.54907227 C-63.42803809 57.00724619 -71.0268496 59.9873589 -78.92993164 66.84985352 C-81.73200145 69.38083233 -84.45043589 71.9916194 -87.1472168 74.6340332 C-92.48929121 79.83932353 -96.67569312 83.60411716 -104.28930664 84.36547852 C-110.01554668 84.18180667 -115.10417818 82.18157491 -119.37133789 78.34204102 C-124.34678517 72.79762531 -126.02828652 68.04900459 -125.85180664 60.60375977 C-125.32962854 56.23704536 -123.68216147 52.79101349 -121.53930664 48.99047852 C-120.95536133 47.93086914 -120.95536133 47.93086914 -120.35961914 46.84985352 C-113.65502199 35.82098957 -103.71402494 27.23776197 -92.53930664 20.99047852 C-119.66220859 19.10834406 -147.12390113 19.14859353 -174.23071289 21.20849609 C-180.97853826 21.71681442 -187.70543679 22.09954284 -194.46899414 22.27563477 C-195.21795959 22.29520737 -195.96692505 22.31477997 -196.73858643 22.33494568 C-200.35690871 22.42511713 -203.97505498 22.50043499 -207.59399414 22.56054688 C-214.53320672 22.7124282 -220.83366961 23.16300821 -227.53930664 24.99047852 C-226.47454102 25.19801758 -225.40977539 25.40555664 -224.31274414 25.61938477 C-210.35259331 28.51265513 -198.35309131 33.36892929 -187.53930664 42.99047852 C-186.49323242 43.87993164 -186.49323242 43.87993164 -185.42602539 44.78735352 C-179.24349012 50.42265873 -174.59206262 57.37038122 -173.03149414 65.70141602 C-172.76492371 71.47710875 -173.98799515 76.38069814 -177.53930664 80.99047852 C-182.52353948 85.67295195 -187.39661518 88.61761682 -194.22680664 89.42797852 C-202.90748417 89.15058844 -209.21439033 83.59080009 -215.23461914 77.92407227 C-223.96761811 70.59723415 -233.46188337 69.1309189 -244.53930664 69.99047852 C-247.87717681 70.86623156 -250.59485862 72.21050147 -253.53930664 73.99047852 C-254.64338867 74.62663086 -254.64338867 74.62663086 -255.76977539 75.27563477 C-263.45817772 80.02629989 -269.42103672 86.45089402 -275.22680664 93.30297852 C-280.01688152 98.86922294 -284.44107407 101.59641769 -291.78930664 102.30297852 C-298.27454593 101.76254191 -302.68712934 99.29204282 -306.91430664 94.36547852 C-307.79201983 93.24259404 -308.66738577 92.11786665 -309.53930664 90.99047852 C-310.19930664 90.33047852 -310.85930664 89.67047852 -311.53930664 88.99047852 C-319.4375828 105.87415312 -324.80082819 122.75818085 -324.56665039 141.63891602 C-324.55569336 142.9112207 -324.54473633 144.18352539 -324.53344727 145.49438477 C-324.49533306 148.09929324 -324.42175766 150.70389822 -324.31469727 153.30688477 C-324.31945952 162.65042421 -324.31945952 162.65042421 -327.86816406 166.54882812 C-330.67478865 168.59970478 -333.50171477 170.30596785 -336.53930664 171.99047852 C-344.8658695 177.68818861 -352.24051519 184.06108489 -359.53930664 190.99047852 C-354.52162624 201.17011767 -349.36709937 211.27943669 -344.16430664 221.36547852 C-343.84014771 221.9940979 -343.51598877 222.62271729 -343.18200684 223.27038574 C-338.78566577 231.78368344 -334.30223515 240.23868964 -329.50854492 248.53686523 C-325.97379813 254.72460919 -324.2872802 259.73408917 -324.27368164 266.88110352 C-324.27095245 267.53508118 -324.26822327 268.18905884 -324.26541138 268.862854 C-324.26136987 270.98893659 -324.27398791 273.11445291 -324.28930664 275.24047852 C-324.29174377 275.9679126 -324.29418091 276.69534668 -324.29669189 277.44482422 C-324.336034 287.48449004 -324.65434072 297.4759469 -325.41430664 307.49047852 C-325.49261719 308.52591797 -325.57092773 309.56135742 -325.65161133 310.62817383 C-326.90843166 325.20440042 -326.90843166 325.20440042 -330.03930664 330.55297852 C-334.07543584 332.87375281 -337.9900044 332.5583607 -342.53930664 331.99047852 C-346.56118176 330.69280671 -350.26143743 328.87286878 -354.03930664 326.99047852 C-356.31522838 325.89647898 -358.59127705 324.8027435 -360.86743164 323.70922852 C-362.09994413 323.10915419 -363.33236326 322.50888806 -364.56469727 321.90844727 C-368.8825329 319.81386536 -373.2328204 317.79118281 -377.58618164 315.77172852 C-379.89500583 314.69799263 -382.20362231 313.62381118 -384.51220703 312.54956055 C-386.02078849 311.84791732 -387.52973605 311.14706069 -389.0390625 310.44702148 C-391.17170187 309.45603125 -393.30114635 308.45846591 -395.42993164 307.45922852 C-396.0601825 307.16794067 -396.69043335 306.87665283 -397.33978271 306.57653809 C-407.52585179 301.77222277 -413.36291702 295.85894722 -418.72680664 286.17797852 C-419.58846042 284.62598651 -420.45660251 283.07757273 -421.33227539 281.53344727 C-421.70892334 280.85306396 -422.08557129 280.17268066 -422.47363281 279.47167969 C-422.82530518 278.9828833 -423.17697754 278.49408691 -423.53930664 277.99047852 C-424.19930664 277.99047852 -424.85930664 277.99047852 -425.53930664 277.99047852 C-426.53930664 274.99047852 -426.53930664 274.99047852 -426.53930664 272.99047852 C-427.50059956 271.13655645 -428.50732496 269.30600184 -429.53930664 267.49047852 C-432.53930664 262.21270074 -432.53930664 262.21270074 -432.53930664 259.99047852 C-433.19930664 259.66047852 -433.85930664 259.33047852 -434.53930664 258.99047852 C-435.91883906 256.42472395 -437.2179477 253.86444872 -438.47680664 251.24047852 C-441.67458297 244.42674971 -441.67458297 244.42674971 -445.53930664 237.99047852 C-446.19930664 237.99047852 -446.85930664 237.99047852 -447.53930664 237.99047852 C-447.8602832 236.35079102 -447.8602832 236.35079102 -448.18774414 234.67797852 C-449.60631523 229.00369415 -452.38708458 224.10084906 -455.16430664 218.99047852 C-455.67993164 218.0249707 -456.19555664 217.05946289 -456.72680664 216.06469727 C-457.98986736 213.70230591 -459.26079088 211.3445305 -460.53930664 208.99047852 C-461.19930664 208.99047852 -461.85930664 208.99047852 -462.53930664 208.99047852 C-462.63211914 208.32661133 -462.72493164 207.66274414 -462.82055664 206.97875977 C-463.91608045 202.42400046 -466.00230825 198.35400927 -468.01196289 194.13696289 C-470.70221632 188.2555511 -472.76640578 182.01838855 -470.53930664 175.61547852 C-464.32693759 159.35698115 -449.08490391 149.10021132 -433.76586914 142.22875977 C-430.53930664 140.99047852 -430.53930664 140.99047852 -427.53930664 140.99047852 C-427.20930664 140.33047852 -426.87930664 139.67047852 -426.53930664 138.99047852 C-422.5979259 138.01153168 -418.55828522 137.55757365 -414.53930664 136.99047852 C-413.7671582 136.85254883 -412.99500977 136.71461914 -412.19946289 136.57250977 C-404.43762221 135.34391301 -396.38603617 136.35205668 -389.16430664 139.42797852 C-381.60742578 146.80493365 -376.8198692 157.4275196 -372.53930664 166.99047852 C-372.53930664 167.65047852 -372.53930664 168.31047852 -372.53930664 168.99047852 C-371.87930664 169.32047852 -371.21930664 169.65047852 -370.53930664 169.99047852 C-369.8177124 171.63410985 -369.14579243 173.30098238 -368.53930664 174.99047852 C-364.42471774 172.62381648 -360.61459781 169.91470141 -356.78930664 167.11547852 C-351.56752011 163.3321931 -346.31312239 159.89266104 -340.53930664 156.99047852 C-341.19930664 156.00047852 -341.85930664 155.01047852 -342.53930664 153.99047852 C-341.87930664 153.99047852 -341.21930664 153.99047852 -340.53930664 153.99047852 C-340.39420913 149.57415674 -340.30529846 145.15844659 -340.22680664 140.74047852 C-340.18491211 139.4862207 -340.14301758 138.23196289 -340.09985352 136.93969727 C-340.08374023 135.73442383 -340.06762695 134.52915039 -340.05102539 133.28735352 C-340.02484131 132.17714844 -339.99865723 131.06694336 -339.97167969 129.9230957 C-340.72363448 126.03815764 -342.34433585 125.17099549 -345.53930664 122.99047852 C-349.53276907 117.48225448 -349.21273517 111.50550805 -348.53930664 104.99047852 C-345.48460141 89.35038773 -336.94435507 73.71153371 -327.53930664 60.99047852 C-326.96567383 60.20672852 -326.39204102 59.42297852 -325.80102539 58.61547852 C-321.38635869 52.76985089 -316.54493344 47.33339104 -311.53930664 41.99047852 C-310.85553955 41.24773682 -310.85553955 41.24773682 -310.15795898 40.48999023 C-297.68298613 27.02407373 -282.85091937 16.37536918 -266.53930664 7.99047852 C-265.80470215 7.60827148 -265.07009766 7.22606445 -264.31323242 6.83227539 C-228.36385355 -11.66644679 -187.7578872 -21.27350936 -147.53930664 -24.00952148 C-146.67273438 -24.07123535 -145.80616211 -24.13294922 -144.91333008 -24.1965332 C-94.99395624 -27.56801366 -45.75550177 -20.30206277 0 0 Z "
          fill="#1F1816" transform="translate(634.539306640625,343.009521484375)"/>
    <path d="M0 0 C1.46336792 0.54092285 1.46336792 0.54092285 2.95629883 1.09277344 C13.80316206 5.29382413 13.80316206 5.29382413 16.25 10.1875 C17.3810076 16.83038008 15.67851914 21.33881404 12.04296875 26.8828125 C9.05029023 30.7296106 5.6310378 33.9969811 1.25 36.1875 C-7.02965529 37.17259381 -14.33988598 34.87517944 -22.1875 32.5 C-53.68517928 23.38189228 -85.99723558 19.25279434 -118.75 22.1875 C-119.66523437 22.2606543 -120.58046875 22.33380859 -121.5234375 22.40917969 C-145.75804174 24.44256258 -169.22920361 31.17460869 -191.75 40.1875 C-195.66503272 41.73332331 -199.58241631 43.27315442 -203.5 44.8125 C-204.47598145 45.19664062 -205.45196289 45.58078125 -206.45751953 45.9765625 C-214.14555964 48.98770069 -221.83461642 51.82677157 -229.75 54.1875 C-230.95269531 54.55488281 -230.95269531 54.55488281 -232.1796875 54.9296875 C-257.04002092 61.20928729 -281.43110021 50.80988724 -304.4465332 42.52490234 C-312.08749054 39.78129071 -319.69998623 37.11615405 -327.5625 35.0625 C-328.56168457 34.7994104 -328.56168457 34.7994104 -329.58105469 34.53100586 C-340.81394243 31.77088445 -351.95391581 30.82166251 -363.5 30.875 C-364.15840881 30.87781982 -364.81681763 30.88063965 -365.49517822 30.88354492 C-386.2998476 31.01700908 -403.74725954 36.38966739 -423.2109375 43.44140625 C-428.21175787 44.91087808 -433.03490301 43.76591423 -437.6875 41.6875 C-440.88518835 39.07714216 -441.27090277 38.6879578 -441.875 34.875 C-442.09235723 27.4848542 -438.66805179 22.40352158 -433.80859375 17.16015625 C-412.98811373 -2.79115763 -379.13004155 -8.34190379 -351.453125 -7.9609375 C-327.20272314 -7.35517398 -304.2479922 -0.06328995 -281.91479492 8.92041016 C-262.28459002 16.78282041 -248.17594747 20.53240913 -228.18603516 12.23730469 C-223.52069665 10.22678599 -218.9195127 8.07748124 -214.3125 5.9375 C-194.94096199 -3.04918511 -175.59437719 -10.97505516 -154.75 -15.8125 C-154.04117676 -15.97830566 -153.33235352 -16.14411133 -152.60205078 -16.31494141 C-102.12683677 -27.7625478 -47.83630817 -17.70206341 0 0 Z "
          fill="#1FA244" transform="translate(756.75,616.8125)"/>
    <path d="M0 0 C13.40054102 11.25899887 21.00729469 24.68650956 22.8125 42.1875 C23.19233128 55.67976761 18.3334503 68.71466601 9.484375 78.85546875 C5.71448575 82.76990897 2.15037775 86.18296418 -2.625 88.8125 C-6.45727343 90.97390221 -7.26618175 93.13613149 -8.48828125 97.25390625 C-9.63422226 100.42284927 -11.58423689 102.14207898 -14.1875 104.1875 C-17 105 -17 105 -19.1875 105.1875 C-19.27 106.21875 -19.3525 107.25 -19.4375 108.3125 C-20.55469227 114.08466008 -22.57656779 117.05037138 -27.375 120.4375 C-36.51562767 125.05612582 -46.21992166 124.94130905 -56.04296875 122.46875 C-63.18715702 120.07704484 -70.03977416 116.54348026 -76.1875 112.1875 C-76.1875 111.5275 -76.1875 110.8675 -76.1875 110.1875 C-77.6725 109.6925 -77.6725 109.6925 -79.1875 109.1875 C-82.69733951 103.51775926 -83.570042 98.26543829 -82.5625 91.75 C-81.97256794 87.49817259 -82.85199494 85.0445833 -84.58203125 81.19921875 C-85.31262498 78.77176216 -84.95843896 77.44509916 -84.375 75 C-83.34929973 69.04264997 -87.07626544 64.86015194 -90.3046875 60.203125 C-92.0760687 57.36597504 -92.81065704 55.46968058 -93.1875 52.1875 C-94.1775 51.8575 -95.1675 51.5275 -96.1875 51.1875 C-95.5275 51.1875 -94.8675 51.1875 -94.1875 51.1875 C-94.5175 49.929375 -94.8475 48.67125 -95.1875 47.375 C-97.91979209 34.68370124 -95.43288867 22.49976999 -88.71484375 11.37109375 C-80.69145561 -0.09968367 -70.45621419 -7.46246026 -57.1875 -11.8125 C-56.18396484 -12.15087891 -56.18396484 -12.15087891 -55.16015625 -12.49609375 C-35.78563423 -17.8882352 -15.5527914 -11.88913993 0 0 Z "
          fill="#1F1816" transform="translate(817.1875,311.8125)"/>
    <path d="M0 0 C1.42119141 0.63615234 1.42119141 0.63615234 2.87109375 1.28515625 C9.90782771 4.7888837 15.45505098 9.47464444 21 15 C21.84691406 15.81210937 21.84691406 15.81210937 22.7109375 16.640625 C33.15329687 27.58023958 36.56022761 42.01185244 36.23828125 56.6171875 C35.79341132 66.95657818 31.95426304 74.33541684 25 82 C13.41417724 92.18665123 -0.65774567 97.32865296 -16 98 C-16.66531738 98.03254883 -17.33063477 98.06509766 -18.01611328 98.09863281 C-36.72221904 98.90679536 -54.73019187 96.26784327 -69.375 83.625 C-79.20445787 74.18935053 -84.98361057 63.84797596 -85.3125 50 C-85.16412132 36.83881068 -79.81580271 24.06518101 -70.9375 14.3125 C-52.25739411 -2.77958794 -23.8324563 -10.75980095 0 0 Z M-38.4375 31.625 C-41.1078307 35.68390266 -41.40296942 38.08377311 -41 43 C-39.61790113 46.86197913 -37.76985739 49.38806207 -34.5625 51.9375 C-27.87426875 53.93223564 -20.81368875 54.33279993 -14.4375 51.3125 C-13.633125 50.549375 -12.82875 49.78625 -12 49 C-11.21625 48.29875 -10.4325 47.5975 -9.625 46.875 C-7.20447357 42.59253016 -7.00619261 38.7971755 -8 34 C-10.064196 30.25564447 -12.70545238 27.80471879 -16.3125 25.5625 C-25.01986482 23.74002829 -32.22812666 24.93798255 -38.4375 31.625 Z "
          fill="#201916" transform="translate(595,463)"/>
    <path d="M0 0 C0.86286621 -0.00636475 1.72573242 -0.01272949 2.61474609 -0.01928711 C16.55367458 0.25619105 28.1525683 6.24600175 38.125 15.8125 C48.79238734 27.07848894 53.91495888 39.42168513 53.72045898 54.91577148 C53.226551 67.33986218 47.97285797 76.37524603 38.9375 84.75 C32.35653588 90.06482785 24.33791326 93.25335743 16.25 95.5 C15.1671875 95.809375 15.1671875 95.809375 14.0625 96.125 C-4.22887431 100.57425321 -22.76541828 96.96857389 -38.75 87.5 C-44.59455562 83.62759671 -48.31215218 78.55338621 -51.75 72.5 C-52.16636719 71.78457031 -52.58273437 71.06914063 -53.01171875 70.33203125 C-57.69344184 60.78788698 -57.20645306 48.1558229 -54.25 38.125 C-48.03582549 22.32699297 -36.5807076 11.44538097 -21.671875 3.953125 C-14.3660452 0.87151907 -7.87173505 0.0493112 0 0 Z M-2.625 35.25 C-4.2884015 38.57680301 -4.86372468 41.81816337 -4.75 45.5 C-2.8934497 50.86336752 0.19498889 53.97249444 5.25 56.5 C11.51760361 57.03254148 16.89457487 57.1573635 22.25 53.5 C26.00532658 50.25214999 27.12826123 48.14347334 27.5 43.125 C27.1412484 37.92310186 25.55845165 35.64888437 21.6875 32.25 C13.68055091 26.50142116 4.20515791 28.87518595 -2.625 35.25 Z "
          fill="#201916" transform="translate(416.75,466.5)"/>
    <path d="M0 0 C11.62318772 4.68608421 23.37283537 8.12674411 35.51953125 11.20703125 C32.41172381 14.36425613 29.23949568 17.36646011 25.89453125 20.26953125 C20.92915813 24.70051443 16.49570154 29.45963873 12.0625 34.41015625 C10.80373047 35.79460938 10.80373047 35.79460938 9.51953125 37.20703125 C8.71128906 38.17125 7.90304687 39.13546875 7.0703125 40.12890625 C4.51953125 42.20703125 4.51953125 42.20703125 1.73999023 41.96875 C-1.47385567 41.20859541 -4.4638492 40.24835355 -7.55859375 39.09765625 C-8.71061279 38.67492432 -9.86263184 38.25219238 -11.04956055 37.81665039 C-12.26426025 37.36797607 -13.47895996 36.91930176 -14.73046875 36.45703125 C-25.53030934 32.52843926 -36.29144999 28.86074893 -47.48046875 26.20703125 C-49.36958984 25.73136719 -49.36958984 25.73136719 -51.296875 25.24609375 C-81.79963204 18.29537134 -110.36025269 25.1059146 -138.94140625 35.4609375 C-143.94222662 36.93040933 -148.76537176 35.78544548 -153.41796875 33.70703125 C-156.6156571 31.09667341 -157.00137152 30.70748905 -157.60546875 26.89453125 C-157.82282598 19.50438545 -154.39852054 14.42305283 -149.5390625 9.1796875 C-110.64736559 -28.08844711 -44.70095684 -18.03619017 0 0 Z "
          fill="#0D8CD8" transform="translate(472.48046875,624.79296875)"/>
    <path d="M0 0 C1.37275226 1.18717649 2.72819438 2.39477022 4.0625 3.625 C4.68640625 4.14707031 5.3103125 4.66914063 5.953125 5.20703125 C12.30039367 10.87817783 17.60415724 19.98212437 18.30078125 28.55859375 C18.54689422 40.17771651 16.61829311 49.62044731 8.99609375 58.65234375 C4.98748468 62.74193482 0.39415419 66.43205841 -4.9375 68.625 C-9.95925523 68.30101579 -14.20521007 67.39960873 -18.9375 65.625 C-17.51482708 60.36111021 -14.96470719 56.04350766 -12.1796875 51.40625 C-10.76560598 48.24013037 -10.63183259 46.05636313 -10.9375 42.625 C-11.98092781 41.38663834 -11.98092781 41.38663834 -14.25 41.25 C-17.08221939 41.36064372 -17.08221939 41.36064372 -18.83984375 43.62890625 C-21.36749658 47.23916644 -23.27583028 50.97609552 -25.1875 54.9375 C-25.55101562 55.67806641 -25.91453125 56.41863281 -26.2890625 57.18164062 C-27.17740537 58.99339254 -28.05822593 60.80882953 -28.9375 62.625 C-29.9275 62.295 -30.9175 61.965 -31.9375 61.625 C-31.95208252 61.00455811 -31.96666504 60.38411621 -31.98168945 59.74487305 C-32.05616588 56.93345367 -32.15282564 54.12322251 -32.25 51.3125 C-32.28383789 49.84780273 -32.28383789 49.84780273 -32.31835938 48.35351562 C-32.35380859 47.41572266 -32.38925781 46.47792969 -32.42578125 45.51171875 C-32.45196533 44.64764404 -32.47814941 43.78356934 -32.50512695 42.89331055 C-33.02424285 40.16993067 -33.71165837 39.24447703 -35.9375 37.625 C-39.02141002 37.29138081 -39.02141002 37.29138081 -41.9375 37.625 C-43.15393292 38.61983202 -43.15393292 38.61983202 -43.05102539 40.57446289 C-43.04317017 41.8234436 -43.04317017 41.8234436 -43.03515625 43.09765625 C-43.03032227 44.44633789 -43.03032227 44.44633789 -43.02539062 45.82226562 C-43.01701172 46.76779297 -43.00863281 47.71332031 -43 48.6875 C-42.99548828 49.63689453 -42.99097656 50.58628906 -42.98632812 51.56445312 C-42.9745011 53.91803065 -42.95802025 56.27148477 -42.9375 58.625 C-52.07848848 56.98987686 -57.01590355 53.5930668 -62.75 46.25 C-67.94642322 38.3149213 -68.94961727 29.97286966 -67.9375 20.625 C-65.34797249 10.23762976 -58.98609511 2.17941995 -49.9375 -3.375 C-34.25170875 -11.71057328 -14.34177655 -10.73210644 0 0 Z "
          fill="#FDDF11" transform="translate(804.9375,322.375)"/>
    <path d="M0 0 C0.48243164 0.94504395 0.96486328 1.89008789 1.46191406 2.86376953 C3.72086652 7.28609891 5.9848337 11.70585078 8.25 16.125 C8.65783722 16.92121765 9.06567444 17.7174353 9.48587036 18.53778076 C14.94148371 29.17971391 20.46164012 39.76727845 26.38183594 50.16064453 C29.25777143 55.2920298 31.35175467 60.35103666 33 66 C32.45061768 65.81824219 31.90123535 65.63648438 31.33520508 65.44921875 C28.83007362 64.62517973 26.32139382 63.81250828 23.8125 63 C22.51602539 62.57074219 22.51602539 62.57074219 21.19335938 62.1328125 C20.35224609 61.86210938 19.51113281 61.59140625 18.64453125 61.3125 C17.87471924 61.06113281 17.10490723 60.80976562 16.31176758 60.55078125 C13.76263168 59.94344673 11.61096242 59.78363559 9 60 C7.19515453 61.74115789 7.19515453 61.74115789 5.875 64.125 C5.15957031 65.27355469 5.15957031 65.27355469 4.4296875 66.4453125 C2.86147943 69.24752037 1.43608116 72.12783768 0 75 C-6.93 74.01 -6.93 74.01 -14 73 C-15.11375 74.876875 -16.2275 76.75375 -17.375 78.6875 C-18.00148437 79.74324219 -18.62796875 80.79898438 -19.2734375 81.88671875 C-20.75442713 84.557191 -21.94913815 87.13932051 -23 90 C-23.66 90 -24.32 90 -25 90 C-25.35078613 89.36835937 -25.70157227 88.73671875 -26.06298828 88.0859375 C-33.34081763 74.9966895 -40.70195876 61.97003684 -48.29150391 49.05859375 C-49.36367344 47.23346231 -50.43101154 45.40548097 -51.49267578 43.57421875 C-52.49942288 41.85488907 -53.52931652 40.14891002 -54.58154297 38.45703125 C-55.05865723 37.66683594 -55.53577148 36.87664063 -56.02734375 36.0625 C-56.456521 35.37285156 -56.88569824 34.68320312 -57.32788086 33.97265625 C-58 32 -58 32 -57.22338867 29.85791016 C-47.23238425 14.68498188 -17.7999654 0 0 0 Z "
          fill="#FDE314" transform="translate(259,537)"/>
    <path d="M0 0 C0.91136719 0.41894531 1.82273437 0.83789062 2.76171875 1.26953125 C10.71475077 5.20633882 16.79219723 10.79656739 23 17 C23.80566406 17.78246094 24.61132812 18.56492187 25.44140625 19.37109375 C33.48575993 27.66727068 42.33808656 40.39512529 43.25 52.25 C43 55 43 55 41 57 C38.609375 57.01953125 38.609375 57.01953125 36 56 C34.51209271 53.88003453 33.39186873 51.98119298 32.25 49.6875 C24.19664931 34.64313911 13.92037667 22.47748674 -1 14 C-1.825 13.525625 -2.65 13.05125 -3.5 12.5625 C-17.33905033 5.11070367 -35.05254919 3.01742645 -50.25805664 7.48974609 C-68.36360302 13.65041455 -83.66143481 25.52778746 -94.33203125 41.3828125 C-96 43 -96 43 -98.69921875 43.2421875 C-99.45847656 43.16226563 -100.21773438 43.08234375 -101 43 C-101.8930649 39.04570709 -102.28461574 36.69836269 -100.734375 32.89453125 C-87.74990009 12.72769915 -70.77056932 -1.15254287 -46.94213867 -6.86865234 C-30.96645387 -10.32088691 -14.5292649 -7.09190692 0 0 Z "
          fill="#1E1714" transform="translate(612,429)"/>
    <path d="M0 0 C1.25490234 -0.00386719 1.25490234 -0.00386719 2.53515625 -0.0078125 C4.92893236 0.12452634 6.6971361 0.27068617 8.9375 1.125 C10.30957031 3.04272461 10.30957031 3.04272461 11.515625 5.52734375 C11.95390625 6.41744141 12.3921875 7.30753906 12.84375 8.22460938 C13.2871875 9.16111328 13.730625 10.09761719 14.1875 11.0625 C14.87585938 12.46145508 14.87585938 12.46145508 15.578125 13.88867188 C18.9375 20.8023856 18.9375 20.8023856 18.9375 23.125 C18.39037354 23.28991943 17.84324707 23.45483887 17.27954102 23.62475586 C-2.79342471 29.76380949 -21.25211939 37.75175457 -36.0625 53.125 C-39.58042046 51.71119952 -40.88276348 50.27812453 -42.640625 46.94921875 C-43.07890625 46.12099609 -43.5171875 45.29277344 -43.96875 44.43945312 C-44.4121875 43.57255859 -44.855625 42.70566406 -45.3125 41.8125 C-45.77140625 40.95720703 -46.2303125 40.10191406 -46.703125 39.22070312 C-50.52967406 31.86940128 -50.52967406 31.86940128 -50.0625 27.125 C-40.62279287 12.76968501 -23.65538866 4.45305239 -7.4140625 0.4765625 C-4.91099515 0.10234977 -2.53030091 -0.00782164 0 0 Z "
          fill="#F4323E" transform="translate(227.0625,492.875)"/>
    <path d="M0 0 C9.78769004 6.99348815 19.69206568 15.21881577 24.39453125 26.7109375 C24.01953125 28.9609375 24.01953125 28.9609375 23.39453125 30.7109375 C21.20703125 31.4609375 21.20703125 31.4609375 18.39453125 31.7109375 C15.01364239 29.66461003 12.72282115 26.94806976 10.20703125 23.9609375 C1.18429689 13.52173086 -11.57933874 5.04477453 -25.60546875 3.7109375 C-36.05313072 3.04295512 -44.86926871 3.40562361 -54.60546875 7.7109375 C-55.91257812 8.27167969 -55.91257812 8.27167969 -57.24609375 8.84375 C-72.94471918 16.1151992 -84.3416627 28.83233885 -92.60546875 43.7109375 C-93.12238281 44.63132812 -93.63929688 45.55171875 -94.171875 46.5 C-95.02328874 48.02817851 -95.86611231 49.56121774 -96.6953125 51.1015625 C-97.60546875 52.7109375 -97.60546875 52.7109375 -98.60546875 53.7109375 C-101.10546875 53.8359375 -101.10546875 53.8359375 -103.60546875 53.7109375 C-104.60546875 52.7109375 -104.60546875 52.7109375 -104.98046875 49.3984375 C-104.71559849 34.53921573 -92.28528524 20.05452714 -82.15771484 10.14257812 C-59.75097874 -10.52321309 -26.41627906 -17.26038798 0 0 Z "
          fill="#1E1714" transform="translate(435.60546875,441.2890625)"/>
    <path d="M0 0 C5.96177827 1.04592601 11.38918229 2.78131932 17 5 C17.6710376 5.26119629 18.3420752 5.52239258 19.03344727 5.79150391 C23.87623091 7.75246182 23.87623091 7.75246182 25 10 C25.01605041 11.52388763 24.9655743 13.04880674 24.87890625 14.5703125 C24.83056641 15.46621094 24.78222656 16.36210938 24.73242188 17.28515625 C24.67634766 18.22230469 24.62027344 19.15945313 24.5625 20.125 C24.51029297 21.06988281 24.45808594 22.01476562 24.40429688 22.98828125 C24.27443239 25.3258419 24.1394613 27.66299545 24 30 C22.9378125 30.42410156 21.875625 30.84820313 20.78125 31.28515625 C10.38150164 35.54417119 10.38150164 35.54417119 1.578125 42.421875 C-0.1556558 44.1556558 -2.01414813 45.566733 -4 47 C-13 43 -22 39 -31 35 C-29.70021649 27.20129894 -26.73353242 20.93873478 -23 14 C-18.2982579 14.56745163 -13.67755138 15.2204081 -9 16 C-6.03 10.72 -3.06 5.44 0 0 Z "
          fill="#FCCF8B" transform="translate(270,601)"/>
    <path d="M0 0 C1.72113092 1.98320729 2.94320919 3.97465474 4.22851562 6.26513672 C4.73962891 7.17054199 5.25074219 8.07594727 5.77734375 9.00878906 C8.08574209 13.16349532 10.39191849 17.31941035 12.69238281 21.47851562 C14.55126975 24.78901628 16.46849845 28.05929859 18.40039062 31.32763672 C19.6171506 33.43795982 20.83331493 35.5486265 22.04882812 37.65966797 C22.6429248 38.63830811 23.23702148 39.61694824 23.84912109 40.62524414 C27.67375135 47.38666482 27.67375135 47.38666482 27.32885742 51.24633789 C26.59009737 53.5751817 25.68153031 55.62237856 24.54882812 57.78466797 C24.01902344 58.94095703 23.48921875 60.09724609 22.94335938 61.28857422 C22.42128906 62.29791016 21.89921875 63.30724609 21.36132812 64.34716797 C20.83152344 65.37970703 20.30171875 66.41224609 19.75585938 67.47607422 C19.35753906 68.23791016 18.95921875 68.99974609 18.54882812 69.78466797 C17.88882813 69.78466797 17.22882813 69.78466797 16.54882812 69.78466797 C16.19804199 69.15302734 15.84725586 68.52138672 15.48583984 67.87060547 C8.20801049 54.78135747 0.84686937 41.75470481 -6.74267578 28.84326172 C-7.81484531 27.01813028 -8.88218341 25.19014894 -9.94384766 23.35888672 C-10.95059476 21.63955704 -11.9804884 19.93357799 -13.03271484 18.24169922 C-13.5098291 17.45150391 -13.98694336 16.66130859 -14.47851562 15.84716797 C-14.90769287 15.15751953 -15.33687012 14.46787109 -15.77905273 13.75732422 C-16.45117188 11.78466797 -16.45117188 11.78466797 -15.70092773 9.66235352 C-14.09826206 7.25444148 -12.24078385 5.51367658 -10.07617188 3.59716797 C-9.3053125 2.90236328 -8.53445312 2.20755859 -7.74023438 1.49169922 C-2.70364402 -2.26425638 -2.70364402 -2.26425638 0 0 Z "
          fill="#FDAC00" transform="translate(217.451171875,557.21533203125)"/>
    <path d="M0 0 C0.48243164 0.94504395 0.96486328 1.89008789 1.46191406 2.86376953 C3.72086652 7.28609891 5.9848337 11.70585078 8.25 16.125 C8.65783722 16.92121765 9.06567444 17.7174353 9.48587036 18.53778076 C14.94148371 29.17971391 20.46164012 39.76727845 26.38183594 50.16064453 C29.25777143 55.2920298 31.35175467 60.35103666 33 66 C11.37889244 61.76515708 11.37889244 61.76515708 7.1484375 55.81640625 C5.39938469 52.53770479 4.2236393 49.04015912 3.00390625 45.53710938 C0.96559173 40.38580478 -1.92056356 35.63663997 -4.625 30.8125 C-9.08679574 22.67463755 -13.34763103 14.53887175 -17 6 C-16.32453125 5.73445312 -15.6490625 5.46890625 -14.953125 5.1953125 C-14.06109375 4.84210937 -13.1690625 4.48890625 -12.25 4.125 C-11.36828125 3.77695312 -10.4865625 3.42890625 -9.578125 3.0703125 C-7.0384159 2.06284557 -7.0384159 2.06284557 -4.859375 0.8671875 C-3 0 -3 0 0 0 Z "
          fill="#FCAC00" transform="translate(259,537)"/>
    <path d="M0 0 C1.32 2.97 2.64 5.94 4 9 C2.68128906 9.40089844 1.36257812 9.80179688 0.00390625 10.21484375 C-17.79726792 15.78354439 -32.64934534 23.04442012 -47 35 C-47.55896973 35.46470703 -48.11793945 35.92941406 -48.69384766 36.40820312 C-50.1308463 37.60353046 -51.5656376 38.80151052 -53 40 C-54.65 36.7 -56.3 33.4 -58 30 C-43.64439833 16.39995631 -20.72994821 0 0 0 Z "
          fill="#DDDFDF" transform="translate(250,521)"/>
    <path d="M0 0 C3.71602258 2.55476553 5.69674103 4.38261897 7.046875 8.80078125 C7.27890625 10.08339844 7.5109375 11.36601562 7.75 12.6875 C7.99234375 13.96238281 8.2346875 15.23726563 8.484375 16.55078125 C9.73656119 25.83782882 9.73656119 25.83782882 7.5625 30.375 C4.69107918 32.61610893 3.9989655 32.69598818 0.5 32.5 C-2.93878826 31.91275209 -3.84883329 31.52229064 -6.4375 29 C-6.953125 28.13375 -7.46875 27.2675 -8 26.375 C-8.66 25.385 -9.32 24.395 -10 23.375 C-9.34 23.375 -8.68 23.375 -8 23.375 C-8 22.055 -8 20.735 -8 19.375 C-8.66 19.045 -9.32 18.715 -10 18.375 C-10.10794277 16.10520335 -10.18556176 13.83394804 -10.25 11.5625 C-10.29640625 10.29792969 -10.3428125 9.03335937 -10.390625 7.73046875 C-10 4.375 -10 4.375 -8.109375 2.5078125 C-7.41328125 2.13398438 -6.7171875 1.76015625 -6 1.375 C-5.34 0.941875 -4.68 0.50875 -4 0.0625 C-2 -0.625 -2 -0.625 0 0 Z "
          fill="#201916" transform="translate(762,256.625)"/>
    <path d="M0 0 C4.21480583 2.0157767 4.21480583 2.0157767 5.875 4.375 C7.40103332 8.96148476 6.23139311 12.48251537 4.6875 16.875 C4.47802734 17.52597656 4.26855469 18.17695313 4.05273438 18.84765625 C2.63021553 23.02656917 0.93327115 26.18583008 -2.125 29.375 C-5.66797097 30.58111778 -7.37931068 30.66310724 -10.875 29.3125 C-13.76902036 26.82042691 -14.27440143 25.08149429 -15.125 21.375 C-14.55078125 18.15625 -14.55078125 18.15625 -13.4375 14.875 C-13.08300781 13.7921875 -12.72851562 12.709375 -12.36328125 11.59375 C-9.16166929 3.27157884 -9.16166929 3.27157884 -5.8125 0.375 C-3.125 -0.625 -3.125 -0.625 0 0 Z "
          fill="#201917" transform="translate(809.125,261.625)"/>
    <path d="M0 0 C3.68611749 0.50265238 6.84038931 0.9688217 10 3 C12.40832094 6.61248141 12.72360855 7.73874968 12 12 C8.14751812 18.03154195 2.42122868 22.88598822 -4 26 C-7.8125 26.625 -7.8125 26.625 -11 26 C-13.41093768 24.2235196 -14.6079196 22.7841608 -15.9375 20.125 C-16.03937918 16.66110774 -14.88167085 14.90803677 -13 12 C-9.56983499 8.58465212 -5.79085259 5.62609163 -2 2.625 C-1.34 2.08875 -0.68 1.5525 0 1 C0 0.67 0 0.34 0 0 Z "
          fill="#211A18" transform="translate(845,288)"/>
    <path d="M0 0 C5.1069509 3.50219756 8.58451821 9.26740231 11.9765625 14.35546875 C12.40035471 18.24023066 12.59114242 20.45723656 10.3515625 23.73046875 C7.41378188 25.74052918 5.5369129 26.28280854 1.9765625 26.35546875 C-2.86753954 24.61656033 -5.41772614 20.5688263 -8.3671875 16.55859375 C-10.06993957 14.19548441 -10.06993957 14.19548441 -12.5859375 11.73046875 C-14.0234375 9.35546875 -14.0234375 9.35546875 -13.5234375 5.73046875 C-12.01088638 2.32722872 -11.22846588 1.10366605 -8.0234375 -0.64453125 C-4.65232818 -1.76823436 -3.19077319 -1.44603126 0 0 Z "
          fill="#211A17" transform="translate(722.0234375,277.64453125)"/>
    <path d="M0 0 C2.6875 1.5625 2.6875 1.5625 4 4 C4.5625 7.4375 4.5625 7.4375 4 11 C0.25740654 16.02910997 -5.17483662 19.37715267 -11.375 20.38671875 C-15.11108135 20.56492 -17.33205381 20.40728426 -20.5625 18.4375 C-22.59892975 14.98442348 -22.61317083 12.95154536 -22 9 C-16.51649808 0.61346764 -9.59716235 -1.31755115 0 0 Z "
          fill="#FEFDF8" transform="translate(777,322)"/>
    <path d="M0 0 C1.73053883 0.32406951 3.44471324 0.7357175 5.1484375 1.1796875 C6.23608398 1.46295898 7.32373047 1.74623047 8.44433594 2.03808594 C14.51976112 3.68167116 20.57556149 5.3884104 26.625 7.125 C27.88957031 7.48464844 29.15414062 7.84429687 30.45703125 8.21484375 C31.65972656 8.55902344 32.86242187 8.90320313 34.1015625 9.2578125 C35.18775879 9.5686377 36.27395508 9.87946289 37.39306641 10.19970703 C40 11 40 11 42 12 C41.34 13.98 40.68 15.96 40 18 C27.32252826 18.94883364 9.30695937 15.593649 -0.875 7.51171875 C-2 6 -2 6 -1.75 3.375 C-1 1 -1 1 0 0 Z "
          fill="#E5E5E5" transform="translate(750,388)"/>
    <path d="M0 0 C7.06277309 0.26158419 13.39162487 2.63199891 20 5 C19.67 5.66 19.34 6.32 19 7 C14.38 5.68 9.76 4.36 5 3 C9.95 4.98 14.9 6.96 20 9 C15.9255567 10.35814777 13.18531884 8.94745762 9.3125 7.5625 C8.61060547 7.31951172 7.90871094 7.07652344 7.18554688 6.82617188 C5.45421468 6.2255056 3.72671863 5.61380281 2 5 C1.74476563 5.69480469 1.48953125 6.38960937 1.2265625 7.10546875 C-0.14965828 10.35317449 -1.82539313 13.27982916 -3.625 16.3125 C-4.57246094 17.91544922 -4.57246094 17.91544922 -5.5390625 19.55078125 C-6.26222656 20.76314453 -6.26222656 20.76314453 -7 22 C-8.58357459 21.68872484 -10.16684993 21.37592711 -11.75 21.0625 C-13.07257813 20.80146484 -13.07257813 20.80146484 -14.421875 20.53515625 C-16.63235053 20.07631512 -18.81512068 19.56663926 -21 19 C-21.2475 19.825 -21.495 20.65 -21.75 21.5 C-23.18704811 25.52373471 -25.02354515 29.21979024 -27 33 C-27.495 31.515 -27.495 31.515 -28 30 C-28.33 29.34 -28.66 28.68 -29 28 C-30.485 30.475 -30.485 30.475 -32 33 C-32.99 32.67 -33.98 32.34 -35 32 C-35.6875 29.9375 -35.6875 29.9375 -36 28 C-35.34 28.33 -34.68 28.66 -34 29 C-34 29.66 -34 30.32 -34 31 C-33.34 31 -32.68 31 -32 31 C-31.85304687 30.45472656 -31.70609375 29.90945313 -31.5546875 29.34765625 C-29.69766418 23.10421577 -26.82989505 18.24286604 -23 13 C-21.22868439 13.30975468 -19.45796222 13.62290425 -17.6875 13.9375 C-16.70136719 14.11152344 -15.71523437 14.28554688 -14.69921875 14.46484375 C-12 15 -12 15 -9 16 C-8.89558594 15.44570313 -8.79117187 14.89140625 -8.68359375 14.3203125 C-7.86013434 11.525256 -6.57969012 9.36037257 -5.0625 6.875 C-4.53785156 6.00617187 -4.01320313 5.13734375 -3.47265625 4.2421875 C-2 2 -2 2 0 0 Z "
          fill="#130D0F" transform="translate(268,596)"/>
    <path d="M0 0 C17.92658177 0.91152111 32.6727832 10.70741021 45 23 C45.7321875 23.70898438 46.464375 24.41796875 47.21875 25.1484375 C51.61106331 29.69761914 54.81027381 34.72865167 57.9375 40.1875 C58.32768311 40.86514404 58.71786621 41.54278809 59.11987305 42.2409668 C61.27691264 46.16018991 62.55654106 49.47390315 63 54 C60.49902863 50.89790495 58.78339408 47.71285874 57.0625 44.125 C54.95915528 39.83438658 52.79517062 35.87023624 50 32 C49.01 32.495 49.01 32.495 48 33 C48.40992188 33.64066406 48.81984375 34.28132813 49.2421875 34.94140625 C54.09035391 42.72398917 56.32198675 48.82337749 56 58 C55.67 58 55.34 58 55 58 C54.79697266 56.81857422 54.79697266 56.81857422 54.58984375 55.61328125 C50.96154183 37.25450807 40.46357964 23.95854635 25.42163086 13.4543457 C17.52704995 8.17941372 9.07333058 3.84224813 0 1 C0 0.67 0 0.34 0 0 Z "
          fill="#F7EACC" transform="translate(603,358)"/>
    <path d="M0 0 C3.1342496 1.03678683 6.25966608 2.09106345 9.375 3.18359375 C17.84875256 6.11470859 26.17481983 8.32743119 35 10 C33 13 33 13 31.07421875 13.3984375 C20.66620427 13.29623114 7.70759551 11.70759551 0 4 C0 2.68 0 1.36 0 0 Z "
          fill="#EAE8E6" transform="translate(749,404)"/>
    <path d="M0 0 C0 0.99 0 1.98 0 3 C0.66 3.33 1.32 3.66 2 4 C2 4.66 2 5.32 2 6 C0.453125 6.2475 0.453125 6.2475 -1.125 6.5 C-8.96028535 8.41310378 -16.34546861 13.56364574 -23 18 C-21.77727528 13.51667602 -20.42976486 11.10822441 -17 8 C-16.34 7.01 -15.68 6.02 -15 5 C-14.01 5 -13.02 5 -12 5 C-10.28617224 4.22224996 -8.60029393 3.38159914 -6.9375 2.5 C-2.20833333 0 -2.20833333 0 0 0 Z "
          fill="#221A18" transform="translate(235,538)"/>
    <path d="M0 0 C0 1.98 0 3.96 0 6 C-1.0725 6.04125 -2.145 6.0825 -3.25 6.125 C-7.22449503 6.62204121 -7.22449503 6.62204121 -9.1875 10 C-9.785625 10.99 -10.38375 11.98 -11 13 C-13.125 13.625 -13.125 13.625 -15 14 C-15.68281995 15.32513363 -16.34662321 16.66010411 -17 18 C-18.00435972 19.28016835 -19.04690261 20.53128122 -20.125 21.75 C-20.93324219 22.67039062 -20.93324219 22.67039062 -21.7578125 23.609375 C-22.16773438 24.06828125 -22.57765625 24.5271875 -23 25 C-21.68 25.33 -20.36 25.66 -19 26 C-22.05263664 26.98120464 -23.94736336 26.98120464 -27 26 C-25.78613673 21.41429433 -23.46090054 19.51850665 -19.92578125 16.6640625 C-17.91210541 14.92405051 -16.22881265 13.08400102 -14.5 11.0625 C-12.15298799 8.32519835 -9.79287791 5.61788287 -7.3125 3 C-6.77238281 2.4225 -6.23226563 1.845 -5.67578125 1.25 C-4 0 -4 0 0 0 Z "
          fill="#159151" transform="translate(504,642)"/>
    <path d="M0 0 C3.64757321 1.43715947 4.97325575 3.07711644 6.8125 6.5 C7.25207031 7.2940625 7.69164062 8.088125 8.14453125 8.90625 C8.56798828 9.94265625 8.56798828 9.94265625 9 11 C8.67 11.66 8.34 12.32 8 13 C3.71 11.35 -0.58 9.7 -5 8 C-5 5 -5 5 -2.5 2.3125 C-1.675 1.549375 -0.85 0.78625 0 0 Z "
          fill="#483833" transform="translate(280,646)"/>
    <path d="M0 0 C6.47250342 4.17061199 12.37397463 8.78759183 17 15 C16.01 15.495 16.01 15.495 15 16 C14.34 15.319375 13.68 14.63875 13 13.9375 C12.00480221 12.95345289 11.00418927 11.97486987 10 11 C9.41863281 10.43410156 8.83726562 9.86820312 8.23828125 9.28515625 C0.10165995 1.74268985 -8.27323455 -2.17812351 -19.375 -2.1875 C-20.13039063 -2.19974609 -20.88578125 -2.21199219 -21.6640625 -2.22460938 C-25.90347819 -2.23572672 -29.12980179 -1.95051822 -33 0 C-32 -3 -32 -3 -29.84375 -4.16015625 C-19.58101451 -7.19104654 -9.21394286 -4.98350275 0 0 Z "
          fill="#F6EED3" transform="translate(598,405)"/>
    <path d="M0 0 C1.875 1.25 1.875 1.25 3.875 3.25 C3.215 3.25 2.555 3.25 1.875 3.25 C1.545 3.91 1.215 4.57 0.875 5.25 C0.875 4.59 0.875 3.93 0.875 3.25 C-1.765 3.58 -4.405 3.91 -7.125 4.25 C-7.30422057 9.89544809 -6.99603055 14.74169601 -5.5625 20.20703125 C-5.125 22.25 -5.125 22.25 -5.125 26.25 C-6.445 26.25 -7.765 26.25 -9.125 26.25 C-9.455 25.26 -9.785 24.27 -10.125 23.25 C-9.465 23.25 -8.805 23.25 -8.125 23.25 C-8.125 21.93 -8.125 20.61 -8.125 19.25 C-8.785 18.92 -9.445 18.59 -10.125 18.25 C-10.23294277 15.98020335 -10.31056176 13.70894804 -10.375 11.4375 C-10.42140625 10.17292969 -10.4678125 8.90835937 -10.515625 7.60546875 C-10.125 4.25 -10.125 4.25 -8.234375 2.3828125 C-7.53828125 2.00898438 -6.8421875 1.63515625 -6.125 1.25 C-5.465 0.816875 -4.805 0.38375 -4.125 -0.0625 C-2.125 -0.75 -2.125 -0.75 0 0 Z "
          fill="#2B2320" transform="translate(762.125,256.75)"/>
    <path d="M0 0 C0.91330078 0.00902344 1.82660156 0.01804687 2.76757812 0.02734375 C4.99117319 0.05062747 7.21418677 0.0833229 9.4375 0.125 C9.4375 0.455 9.4375 0.785 9.4375 1.125 C7.50583984 1.21587891 7.50583984 1.21587891 5.53515625 1.30859375 C3.85675841 1.39298247 2.17837364 1.4776313 0.5 1.5625 C-0.77520508 1.62147461 -0.77520508 1.62147461 -2.07617188 1.68164062 C-2.88505859 1.72353516 -3.69394531 1.76542969 -4.52734375 1.80859375 C-5.65064087 1.86358032 -5.65064087 1.86358032 -6.79663086 1.91967773 C-8.58711326 1.94271063 -8.58711326 1.94271063 -9.5625 3.125 C-6.9225 4.115 -4.2825 5.105 -1.5625 6.125 C-6.08580564 7.25582641 -9.36705366 6.61036209 -13.8125 5.6875 C-14.93011719 5.46610352 -14.93011719 5.46610352 -16.0703125 5.24023438 C-17.90257665 4.8761306 -19.73276053 4.50158591 -21.5625 4.125 C-16.34504612 -1.09245388 -6.88614214 -0.13135708 0 0 Z "
          fill="#E6D9C0" transform="translate(426.5625,364.875)"/>
    <path d="M0 0 C0.66 0.33 1.32 0.66 2 1 C1.113125 1.556875 0.22625 2.11375 -0.6875 2.6875 C-5.5699842 5.9655745 -9.19857277 9.26818609 -11 15 C-11.66 14.67 -12.32 14.34 -13 14 C-16.36932827 14.44924377 -18.40386733 15.86746245 -21 18 C-17.38964179 9.75545066 -7.74269885 3.96259335 0 0 Z "
          fill="#140F0D" transform="translate(212,529)"/>
    <path d="M0 0 C0 0.33 0 0.66 0 1 C-17.07706853 1.97678174 -33.92110791 1.92403281 -51 1 C-51 0.67 -51 0.34 -51 0 C-33.93297022 -1.10230816 -17.07617725 -0.83367587 0 0 Z "
          fill="#38322E" transform="translate(538,319)"/>
    <path d="M0 0 C1.03821899 -0.00676758 1.03821899 -0.00676758 2.09741211 -0.01367188 C6.86990998 -0.00001177 11.46151671 0.45817593 16.1875 1.125 C16.1875 1.455 16.1875 1.785 16.1875 2.125 C3.43286736 2.85806308 -9.08221785 3.43221697 -21.8125 2.125 C-21.8125 1.795 -21.8125 1.465 -21.8125 1.125 C-14.53966587 0.4166892 -7.30464116 0.01937785 0 0 Z "
          fill="#169735" transform="translate(661.8125,634.875)"/>
    <path d="M0 0 C9.78512316 0.49754864 18.72725596 3.76059544 27 9 C23.4295866 10.7852067 19.66657235 9.1461516 16 8 C13.38094411 6.8141606 10.84970522 5.5196764 8.30859375 4.17578125 C5.61915617 2.80603385 2.89675755 1.83853508 0 1 C0 0.67 0 0.34 0 0 Z "
          fill="#F2EAD3" transform="translate(603,358)"/>
    <path d="M0 0 C0 3.84149151 -0.46307266 5.08999511 -3 8 C-8.94844536 10.25820611 -15.8435439 10.73895343 -22 9 C-22.33 8.34 -22.66 7.68 -23 7 C-21.98679687 6.97421875 -20.97359375 6.9484375 -19.9296875 6.921875 C-18.57808403 6.86555819 -17.22652319 6.80821167 -15.875 6.75 C-15.20984375 6.73582031 -14.5446875 6.72164062 -13.859375 6.70703125 C-7.82037165 6.41100167 -4.20327127 4.20327127 0 0 Z "
          fill="#231D1A" transform="translate(585,509)"/>
    <path d="M0 0 C6.14154225 0.58490879 12.00679849 1.54066252 18 3 C17.01 4.485 17.01 4.485 16 6 C13.6875 6.36328125 13.6875 6.36328125 11 6.3125 C10.113125 6.30863281 9.22625 6.30476563 8.3125 6.30078125 C6 6 6 6 4 4 C4.33 3.34 4.66 2.68 5 2 C3.35 1.67 1.7 1.34 0 1 C0 0.67 0 0.34 0 0 Z "
          fill="#EEEDEB" transform="translate(766,411)"/>
    <path d="M0 0 C2.97 0 5.94 0 9 0 C8.34 1.98 7.68 3.96 7 6 C3.37 6 -0.26 6 -4 6 C-4 5.01 -4 4.02 -4 3 C-2.68 3 -1.36 3 0 3 C0 2.01 0 1.02 0 0 Z "
          fill="#DFE0DF" transform="translate(783,400)"/>
    <path d="M0 0 C0.66 0.33 1.32 0.66 2 1 C1.67 8.26 1.34 15.52 1 23 C-2.23945545 18.68072606 -2.35373864 17.84798489 -2.1875 12.75 C-2.14689453 11.13351562 -2.14689453 11.13351562 -2.10546875 9.484375 C-2.07066406 8.66453125 -2.03585937 7.8446875 -2 7 C-1.34 7 -0.68 7 0 7 C0 4.69 0 2.38 0 0 Z "
          fill="#242E33" transform="translate(307,639)"/>
    <path d="M0 0 C1.38294718 0.01329757 2.76582404 0.03715018 4.1484375 0.0703125 C4.85484375 0.07933594 5.56125 0.08835937 6.2890625 0.09765625 C8.03399848 0.12123647 9.77876045 0.15710789 11.5234375 0.1953125 C9.05928073 2.74542823 6.71995027 4.59705611 3.5234375 6.1953125 C2.5334375 5.8653125 1.5434375 5.5353125 0.5234375 5.1953125 C0.8534375 4.5353125 1.1834375 3.8753125 1.5234375 3.1953125 C-0.7865625 2.8653125 -3.0965625 2.5353125 -5.4765625 2.1953125 C-3.4765625 0.1953125 -3.4765625 0.1953125 0 0 Z "
          fill="#F4E5C4" transform="translate(531.4765625,362.8046875)"/>
    <path d="M0 0 C0.433125 0.58652344 0.86625 1.17304688 1.3125 1.77734375 C2.82074185 3.76389378 4.37517458 5.67110166 6 7.5625 C6.495 8.14128906 6.99 8.72007812 7.5 9.31640625 C8.94634815 10.93978139 10.44682595 12.47918374 12 14 C6.61103792 12.57351004 4.3524585 9.21006416 1 5 C-0.65 7.97 -2.3 10.94 -4 14 C-5.305239 10.08428299 -4.32239848 8.96107003 -2.5625 5.3125 C-2.08941406 4.31863281 -1.61632812 3.32476562 -1.12890625 2.30078125 C-0.75636719 1.54152344 -0.38382812 0.78226562 0 0 Z "
          fill="#F7EFD7" transform="translate(323,430)"/>
    <path d="M0 0 C-0.33 0.66 -0.66 1.32 -1 2 C-3.3140622 2.73075648 -5.64828869 3.40138258 -8 4 C-8 4.66 -8 5.32 -8 6 C-9.65 5.67 -11.3 5.34 -13 5 C-13.33 3.68 -13.66 2.36 -14 1 C-12.9275 0.855625 -11.855 0.71125 -10.75 0.5625 C-7.22404292 0.11141489 -7.22404292 0.11141489 -4.75 -0.625 C-3 -1 -3 -1 0 0 Z "
          fill="#221917" transform="translate(245,519)"/>
    <path d="M0 0 C8.48801558 3.68347846 16.71441879 9.27356899 22 17 C21.34 17.33 20.68 17.66 20 18 C19.34 17.319375 18.68 16.63875 18 15.9375 C12.45005201 10.41890764 6.96692014 5.62860424 0 2 C0 1.34 0 0.68 0 0 Z "
          fill="#F2E7CA" transform="translate(593,403)"/>
    <path d="M0 0 C0.99 0.33 1.98 0.66 3 1 C3.6875 3.25 3.6875 3.25 4 6 C2.5625 8.3125 2.5625 8.3125 1 10 C1 8.35 1 6.7 1 5 C-0.32 6.65 -1.64 8.3 -3 10 C-3.99 9.67 -4.98 9.34 -6 9 C-6.6875 6.9375 -6.6875 6.9375 -7 5 C-6.01 5.495 -6.01 5.495 -5 6 C-5 6.66 -5 7.32 -5 8 C-4.34 8 -3.68 8 -3 8 C-2.690625 6.865625 -2.38125 5.73125 -2.0625 4.5625 C-1 1 -1 1 0 0 Z "
          fill="#130D10" transform="translate(239,619)"/>
    <path d="M0 0 C1.65 0.33 3.3 0.66 5 1 C4.67 2.32 4.34 3.64 4 5 C-0.455 5.495 -0.455 5.495 -5 6 C-5.33 5.34 -5.66 4.68 -6 4 C-7.97888961 3.27306096 -9.97954558 2.60183749 -12 2 C-7.99799622 0.39919849 -4.95443764 1.70720308 -1 3 C-0.67 2.01 -0.34 1.02 0 0 Z "
          fill="#25201D" transform="translate(775,406)"/>
    <path d="M0 0 C3.68611749 0.50265238 6.84038931 0.9688217 10 3 C12.29013653 6.4352048 12.17842973 7.985331 12 12 C11.34 12 10.68 12 10 12 C9.67 9.69 9.34 7.38 9 5 C4.545 4.01 4.545 4.01 0 3 C0 2.01 0 1.02 0 0 Z "
          fill="#251E1C" transform="translate(845,288)"/>
    <path d="M0 0 C0.66 0.33 1.32 0.66 2 1 C-0.79196011 4.28465896 -4.23196817 6.01321958 -8 8 C-8.66 8 -9.32 8 -10 8 C-10.226875 8.639375 -10.45375 9.27875 -10.6875 9.9375 C-12 12 -12 12 -14.625 12.75 C-15.40875 12.8325 -16.1925 12.915 -17 13 C-13.50164156 9.29394681 -9.99149936 6.47800508 -5.6875 3.6875 C-4.08455078 2.64142578 -4.08455078 2.64142578 -2.44921875 1.57421875 C-1.64097656 1.05472656 -0.83273437 0.53523438 0 0 Z "
          fill="#F9F0D6" transform="translate(307,508)"/>
    <path d="M0 0 C2.0245738 1.93254772 3.42105792 3.63158688 5 6 C5.433125 5.566875 5.86625 5.13375 6.3125 4.6875 C7.875 3.125 9.4375 1.5625 11 0 C10.52269162 1.4589426 10.04308958 2.91713496 9.5625 4.375 C9.29566406 5.18710937 9.02882812 5.99921875 8.75390625 6.8359375 C8 9 8 9 7 11 C6.34 11 5.68 11 5 11 C4.16151196 9.54462432 3.32936066 8.08559627 2.5 6.625 C1.80390625 5.40683594 1.80390625 5.40683594 1.09375 4.1640625 C0 2 0 2 0 0 Z "
          fill="#F3CF02" transform="translate(229,616)"/>
    <path d="M0 0 C-0.33 0.99 -0.66 1.98 -1 3 C-7.6 2.67 -14.2 2.34 -21 2 C-21 1.67 -21 1.34 -21 1 C-13.98194143 -0.10087193 -7.09434233 -0.09733092 0 0 Z "
          fill="#2D241E" transform="translate(450,362)"/>
    <path d="M0 0 C-7.84615385 5.84615385 -7.84615385 5.84615385 -12 7 C-12.99 6.67 -13.98 6.34 -15 6 C-14.34 6 -13.68 6 -13 6 C-13 5.34 -13 4.68 -13 4 C-11.40233897 3.13372601 -9.79660056 2.28233535 -8.1875 1.4375 C-7.29417969 0.96183594 -6.40085937 0.48617187 -5.48046875 -0.00390625 C-3 -1 -3 -1 0 0 Z "
          fill="#2B2921" transform="translate(788,597)"/>
    <path d="M0 0 C1.53202706 0.25195908 3.05257128 0.57596777 4.5625 0.9375 C5.38878906 1.13214844 6.21507812 1.32679688 7.06640625 1.52734375 C8.02353516 1.76130859 8.02353516 1.76130859 9 2 C8.67 3.32 8.34 4.64 8 6 C4.22454612 4.90931332 1.52956528 4.0916909 -1 1 C-0.67 0.67 -0.34 0.34 0 0 Z "
          fill="#F2DCB5" transform="translate(624,366)"/>
    <path d="M0 0 C1.4540625 0.0309375 1.4540625 0.0309375 2.9375 0.0625 C2.9375 1.0525 2.9375 2.0425 2.9375 3.0625 C1.2875 3.0625 -0.3625 3.0625 -2.0625 3.0625 C-2.0625 6.3625 -2.0625 9.6625 -2.0625 13.0625 C-2.3925 13.0625 -2.7225 13.0625 -3.0625 13.0625 C-3.23123478 11.62524129 -3.39740737 10.18768162 -3.5625 8.75 C-3.6553125 7.94949219 -3.748125 7.14898437 -3.84375 6.32421875 C-4.0625 4.0625 -4.0625 4.0625 -4.0625 1.0625 C-3.0625 0.0625 -3.0625 0.0625 0 0 Z "
          fill="#2C2113" transform="translate(766.0625,358.9375)"/>
    <path d="M0 0 C-2.95183101 2.95183101 -5.95511947 3.08663988 -10 4 C-9.625 2.0625 -9.625 2.0625 -9 0 C-5.93109813 -1.53445094 -3.29905734 -0.54984289 0 0 Z "
          fill="#29A64B" transform="translate(584,649)"/>
    <path d="M0 0 C0 0.33 0 0.66 0 1 C1.65 1.33 3.3 1.66 5 2 C5.33 2.99 5.66 3.98 6 5 C4.68 5.33 3.36 5.66 2 6 C2 5.34 2 4.68 2 4 C0.865625 3.71125 -0.26875 3.4225 -1.4375 3.125 C-2.613125 2.75375 -3.78875 2.3825 -5 2 C-5.33 1.34 -5.66 0.68 -6 0 C-2.25 -1.125 -2.25 -1.125 0 0 Z "
          fill="#2D2119" transform="translate(256,612)"/>
    <path d="M0 0 C2.6875 0.875 2.6875 0.875 5 2 C2.94766315 4.2477975 1.99332739 5.0022242 -1 6 C-1.66 4.68 -2.32 3.36 -3 2 C-2.01 1.34 -1.02 0.68 0 0 Z "
          fill="#211A19" transform="translate(218,527)"/>
    <path d="M0 0 C0.99 0.66 1.98 1.32 3 2 C2.01 3.485 2.01 3.485 1 5 C2.32 5.33 3.64 5.66 5 6 C1.94736336 6.98120464 0.05263664 6.98120464 -3 6 C-1.125 1.125 -1.125 1.125 0 0 Z "
          fill="#178C65" transform="translate(480,662)"/>
    <path d="M0 0 C6.93 0.495 6.93 0.495 14 1 C11.58513057 3.41486943 10.87292211 3.2961925 7.5625 3.3125 C6.38880859 3.33763672 6.38880859 3.33763672 5.19140625 3.36328125 C3 3 3 3 0 0 Z "
          fill="#15130E" transform="translate(761,601)"/>
    <path d="M0 0 C0.66 0 1.32 0 2 0 C2.99 2.97 3.98 5.94 5 9 C2.03 8.01 -0.94 7.02 -4 6 C-4 5.67 -4 5.34 -4 5 C-2.35 5 -0.7 5 1 5 C0.67 3.35 0.34 1.7 0 0 Z "
          fill="#E9C405" transform="translate(287,594)"/>
    <path d="M0 0 C1.27875 -0.061875 2.5575 -0.12375 3.875 -0.1875 C4.95394531 -0.23970703 4.95394531 -0.23970703 6.0546875 -0.29296875 C6.69664062 -0.19628906 7.33859375 -0.09960938 8 0 C8.66 0.99 9.32 1.98 10 3 C3.375 4.125 3.375 4.125 0 3 C0 2.01 0 1.02 0 0 Z "
          fill="#2CAB4B" transform="translate(600,640)"/>
    <path d="M0 0 C1.60080151 4.00200378 0.29279692 7.04556236 -1 11 C-1.33 10.34 -1.66 9.68 -2 9 C-2.66 9 -3.32 9 -4 9 C-3.67 7.02 -3.34 5.04 -3 3 C-2.01 3 -1.02 3 0 3 C0 2.01 0 1.02 0 0 Z "
          fill="#2D2522" transform="translate(838,362)"/>
    <path d="M0 0 C1.19882812 0.15275391 1.19882812 0.15275391 2.421875 0.30859375 C3.02515625 0.39238281 3.6284375 0.47617187 4.25 0.5625 C2.25 2.5625 2.25 2.5625 -1.125 2.8125 C-4.38523324 2.58765633 -6.05632641 2.2864511 -8.75 0.5625 C-5.62819599 -0.40411363 -3.22916205 -0.42738909 0 0 Z "
          fill="#2A2320" transform="translate(452.75,324.4375)"/>
    <path d="M0 0 C0.268125 0.639375 0.53625 1.27875 0.8125 1.9375 C1.88667752 4.33131686 1.88667752 4.33131686 5 5 C3.35 5.33 1.7 5.66 0 6 C-0.33 5.34 -0.66 4.68 -1 4 C-2.65 4 -4.3 4 -6 4 C-4.60804085 1.2160817 -2.84424221 1.02101003 0 0 Z "
          fill="#130C0B" transform="translate(230,520)"/>
    <path d="M0 0 C3.70503641 0.60334309 5.85968148 2.22474237 8.75 4.5625 C9.94882812 5.52349609 9.94882812 5.52349609 11.171875 6.50390625 C12.07679688 7.24447266 12.07679688 7.24447266 13 8 C12.34 8.66 11.68 9.32 11 10 C9.5409857 8.70910257 8.08281149 7.41725561 6.625 6.125 C5.81289063 5.40570313 5.00078125 4.68640625 4.1640625 3.9453125 C2.74204921 2.66704062 1.35205414 1.35205414 0 0 Z "
          fill="#150F0B" transform="translate(435,443)"/>
    <path d="M0 0 C3.96 0 7.92 0 12 0 C9 3 9 3 6.95703125 3.29296875 C4.97135417 3.1953125 2.98567708 3.09765625 1 3 C0.67 2.01 0.34 1.02 0 0 Z "
          fill="#2C221C" transform="translate(453,361)"/>
    <path d="M0 0 C0.66 1.32 1.32 2.64 2 4 C1.34 4 0.68 4 0 4 C0.165 5.093125 0.33 6.18625 0.5 7.3125 C1 11 1 11 1 14 C-1 13 -1 13 -1.75 10.9375 C-2.09214294 6.91732042 -1.11562824 3.87188624 0 0 Z "
          fill="#2F2622" transform="translate(796,275)"/>
    <path d="M0 0 C0 3.64478912 -0.85802506 5.09303401 -3 8 C-5.1875 8.8125 -5.1875 8.8125 -7 9 C-7.33 8.01 -7.66 7.02 -8 6 C-7.05125 5.38125 -6.1025 4.7625 -5.125 4.125 C-2.05554891 2.18029031 -2.05554891 2.18029031 0 0 Z "
          fill="#2C2623" transform="translate(585,509)"/>
    <path d="M0 0 C0 3 0 3 -1.96875 5.04296875 C-2.8040625 5.75066406 -3.639375 6.45835937 -4.5 7.1875 C-5.3353125 7.90292969 -6.170625 8.61835938 -7.03125 9.35546875 C-7.6809375 9.89816406 -8.330625 10.44085938 -9 11 C-9 8 -9 8 -7.03125 5.95703125 C-6.1959375 5.24933594 -5.360625 4.54164063 -4.5 3.8125 C-3.6646875 3.09707031 -2.829375 2.38164062 -1.96875 1.64453125 C-1.3190625 1.10183594 -0.669375 0.55914062 0 0 Z "
          fill="#090504" transform="translate(384,477)"/>
    <path d="M0 0 C0.66 0.33 1.32 0.66 2 1 C2 2.32 2 3.64 2 5 C1.34 5 0.68 5 0 5 C0 8.63 0 12.26 0 16 C-0.33 16 -0.66 16 -1 16 C-1.02692484 13.70839681 -1.04636124 11.41670454 -1.0625 9.125 C-1.07410156 7.84882813 -1.08570313 6.57265625 -1.09765625 5.2578125 C-1 2 -1 2 0 0 Z "
          fill="#F0D410" transform="translate(821,347)"/>
    <path d="M0 0 C0.59296875 0.21527344 1.1859375 0.43054688 1.796875 0.65234375 C0.51163239 1.51614634 -0.78154919 2.36814744 -2.078125 3.21484375 C-2.79742187 3.69050781 -3.51671875 4.16617188 -4.2578125 4.65625 C-4.89976562 4.98496094 -5.54171875 5.31367187 -6.203125 5.65234375 C-6.863125 5.32234375 -7.523125 4.99234375 -8.203125 4.65234375 C-2.74543269 -0.43323317 -2.74543269 -0.43323317 0 0 Z "
          fill="#189244" transform="translate(509.203125,637.34765625)"/>
    <path d="M0 0 C1.2380014 3.57644848 0.74926071 6.33694766 0 10 C-0.66 10 -1.32 10 -2 10 C-2.33 9.01 -2.66 8.02 -3 7 C-3.66 6.34 -4.32 5.68 -5 5 C-3.33333333 3.33333333 -1.66666667 1.66666667 0 0 Z "
          fill="#291D15" transform="translate(244,613)"/>
    <path d="M0 0 C0.66 0.33 1.32 0.66 2 1 C1.54625 1.5775 1.0925 2.155 0.625 2.75 C-0.84113516 4.7800333 -1.94857784 6.73539843 -3 9 C-3.99 8.67 -4.98 8.34 -6 8 C-4.55746343 4.63408134 -2.66735273 2.48952921 0 0 Z "
          fill="#352925" transform="translate(177,500)"/>
    <path d="M0 0 C-0.56589844 0.19335938 -1.13179687 0.38671875 -1.71484375 0.5859375 C-2.81505859 0.97652344 -2.81505859 0.97652344 -3.9375 1.375 C-5.03384766 1.75785156 -5.03384766 1.75785156 -6.15234375 2.1484375 C-8.18682116 2.85271413 -8.18682116 2.85271413 -9 5 C-9.99 5 -10.98 5 -12 5 C-11 2 -11 2 -7.6875 0.25 C-4.06346006 -0.97848812 -3.3741029 -1.10235591 0 0 Z "
          fill="#F4E8CE" transform="translate(744,488)"/>
    <path d="M0 0 C1.21236328 0.04060547 1.21236328 0.04060547 2.44921875 0.08203125 C3.06410156 0.11683594 3.67898437 0.15164063 4.3125 0.1875 C1.27724514 2.21100324 0.11823798 2.50874018 -3.375 2.8125 C-4.18324219 2.88726562 -4.99148437 2.96203125 -5.82421875 3.0390625 C-6.43910156 3.08804687 -7.05398437 3.13703125 -7.6875 3.1875 C-5.26849268 0.20484049 -3.789448 -0.16475861 0 0 Z "
          fill="#160F0E" transform="translate(215.6875,481.8125)"/>
    <path d="M0 0 C0.99 0.33 1.98 0.66 3 1 C2 3 2 3 -0.4375 4.4375 C-3.2355972 5.89664045 -3.2355972 5.89664045 -5 9 C-5.66 9 -6.32 9 -7 9 C-5.44499019 5.18315774 -2.96404505 2.80804268 0 0 Z "
          fill="#F3E3C5" transform="translate(552,412)"/>
    <path d="M0 0 C0.99 0.33 1.98 0.66 3 1 C3 1.99 3 2.98 3 4 C5.475 4.99 5.475 4.99 8 6 C7.67 6.66 7.34 7.32 7 8 C4.08482708 6.92598892 2.22189824 6.22189824 0 4 C0 2.68 0 1.36 0 0 Z "
          fill="#D6D5D4" transform="translate(749,404)"/>
    <path d="M0 0 C5.15171623 -0.09038099 9.91913204 0.15318867 15 1 C15 1.33 15 1.66 15 2 C13.06494977 2.24900646 11.12674066 2.47356242 9.1875 2.6875 C8.10855469 2.81511719 7.02960937 2.94273437 5.91796875 3.07421875 C3 3 3 3 1.11328125 1.51953125 C0.74589844 1.01808594 0.37851562 0.51664062 0 0 Z "
          fill="#3A332F" transform="translate(543,320)"/>
    <path d="M0 0 C0 0.66 0 1.32 0 2 C0.66 2.33 1.32 2.66 2 3 C0.68 3.99 -0.64 4.98 -2 6 C-3.66666667 4.33333333 -5.33333333 2.66666667 -7 1 C-2.25 0 -2.25 0 0 0 Z "
          fill="#39392C" transform="translate(749,593)"/>
    <path d="M0 0 C0.33 0 0.66 0 1 0 C1.33 2.31 1.66 4.62 2 7 C2.66 6.67 3.32 6.34 4 6 C3.34 7.65 2.68 9.3 2 11 C1.01 11 0.02 11 -1 11 C-0.67 7.37 -0.34 3.74 0 0 Z "
          fill="#36302D" transform="translate(587,498)"/>
    <path d="M0 0 C1.14926266 0.95421808 2.29430541 1.91352045 3.4375 2.875 C4.07558594 3.40867187 4.71367188 3.94234375 5.37109375 4.4921875 C7 6 7 6 8 8 C4.21479387 7.45925627 2.40822445 5.92427254 0 3 C0 2.01 0 1.02 0 0 Z "
          fill="#27201E" transform="translate(691,382)"/>
    <path d="M0 0 C3.68266103 0.59950296 7.34543185 1.24758891 11 2 C10.34 2.66 9.68 3.32 9 4 C5.72689117 3.79107816 3.67566943 3.56305786 1.125 1.4375 C0.75375 0.963125 0.3825 0.48875 0 0 Z "
          fill="#29211E" transform="translate(719,300)"/>
    <path d="M0 0 C1.6286551 0.42369072 3.25287378 0.8644623 4.875 1.3125 C5.77992188 1.55613281 6.68484375 1.79976562 7.6171875 2.05078125 C10 3 10 3 12 6 C7.24518354 5.42365861 4.02951788 3.44931479 0 1 C0 0.67 0 0.34 0 0 Z "
          fill="#F6E8B3" transform="translate(245,637)"/>
    <path d="M0 0 C3.87132028 0.57352893 6.08172796 2.48704352 9 5 C8.67 5.99 8.34 6.98 8 8 C6.66372225 6.85760183 5.33104612 5.71098945 4 4.5625 C3.2575 3.92441406 2.515 3.28632813 1.75 2.62890625 C1.1725 2.09136719 0.595 1.55382812 0 1 C0 0.67 0 0.34 0 0 Z "
          fill="#16110E" transform="translate(682,376)"/>
    <path d="M0 0 C1.98 0.495 1.98 0.495 4 1 C3.1875 3.4375 3.1875 3.4375 2 6 C1.01 6.33 0.02 6.66 -1 7 C-0.67 4.69 -0.34 2.38 0 0 Z "
          fill="#281E17" transform="translate(263,602)"/>
    <path d="M0 0 C0.66 0 1.32 0 2 0 C0.90931332 3.77545388 0.0916909 6.47043472 -3 9 C-2.44271087 5.65626525 -1.64826111 2.96687001 0 0 Z "
          fill="#24211D" transform="translate(801,575)"/>
    <path d="M0 0 C0.66 0.99 1.32 1.98 2 3 C0.35 4.65 -1.3 6.3 -3 8 C-3.66 7.67 -4.32 7.34 -5 7 C-1.125 1.125 -1.125 1.125 0 0 Z "
          fill="#140E0B" transform="translate(518,385)"/>
    <path d="M0 0 C0 1.66666667 0 3.33333333 0 5 C-1.98 5 -3.96 5 -6 5 C-2.25 1.125 -2.25 1.125 0 0 Z " fill="#14915C"
          transform="translate(493,651)"/>
    <path d="M0 0 C2.97 0.495 2.97 0.495 6 1 C4.71034824 2.37562854 3.37310707 3.70766393 2 5 C1.34 5 0.68 5 0 5 C-0.33 4.01 -0.66 3.02 -1 2 C-0.67 1.34 -0.34 0.68 0 0 Z "
          fill="#1C99D2" transform="translate(502,635)"/>
    <path d="M0 0 C0.33 0.99 0.66 1.98 1 3 C-0.8125 4.5625 -0.8125 4.5625 -3 6 C-3.99 5.67 -4.98 5.34 -6 5 C-4.02 3.35 -2.04 1.7 0 0 Z "
          fill="#F6E6C5" transform="translate(296,515)"/>
    <path d="M0 0 C5.75 0.75 5.75 0.75 8 3 C5.125 3.625 5.125 3.625 2 4 C1.34 3.34 0.68 2.68 0 2 C0 1.34 0 0.68 0 0 Z "
          fill="#3C332E" transform="translate(845,288)"/>
    <path d="M0 0 C-0.33 0.99 -0.66 1.98 -1 3 C-2.98 3 -4.96 3 -7 3 C-7.33 2.34 -7.66 1.68 -8 1 C-5.10765685 0.17361624 -3.11257569 0 0 0 Z "
          fill="#26201D" transform="translate(768,286)"/>
    <path d="M0 0 C2.03144641 0.93446535 4.03533587 1.93224776 6 3 C6 3.66 6 4.32 6 5 C0.25 3.25 0.25 3.25 -2 1 C-1.34 0.67 -0.68 0.34 0 0 Z "
          fill="#2B2420" transform="translate(232,644)"/>
    <path d="M0 0 C0.99 0.33 1.98 0.66 3 1 C1.37660195 2.70884005 -0.29319053 4.37446717 -2 6 C-2.66 6 -3.32 6 -4 6 C-2.84826645 3.53199953 -1.95216435 1.95216435 0 0 Z "
          fill="#130F0D" transform="translate(330,378)"/>
    <path d="M0 0 C1.32 0.66 2.64 1.32 4 2 C3.34 3.32 2.68 4.64 2 6 C1.01 5.67 0.02 5.34 -1 5 C-0.67 3.35 -0.34 1.7 0 0 Z "
          fill="#EEE313" transform="translate(774,379)"/>
    <path d="M0 0 C-0.99 0.33 -1.98 0.66 -3 1 C-3.33 1.99 -3.66 2.98 -4 4 C-4.66 3.67 -5.32 3.34 -6 3 C-6 2.01 -6 1.02 -6 0 C-3.50907189 -1.24546405 -2.58919267 -0.7767578 0 0 Z "
          fill="#251F1C" transform="translate(366,355)"/>
    <path d="M0 0 C0.99 0.33 1.98 0.66 3 1 C2.01 2.485 2.01 2.485 1 4 C0.67 2.68 0.34 1.36 0 0 Z " fill="#B6C498"
          transform="translate(737,595)"/>
    <path d="M0 0 C1 4 1 4 1 4 Z " fill="#57483A" transform="translate(216,632)"/>
    <path d="M0 0 C0.66 0 1.32 0 2 0 C2 0.66 2 1.32 2 2 C1.34 2 0.68 2 0 2 C0 1.34 0 0.68 0 0 Z " fill="#A0AC88"
          transform="translate(744,598)"/>
    <path d="M0 0 C0.99 0.495 0.99 0.495 2 1 C1.67 1.66 1.34 2.32 1 3 C0.67 2.01 0.34 1.02 0 0 Z " fill="#574739"
          transform="translate(194,593)"/>
    <path d="M0 0 C0.99 0.495 0.99 0.495 2 1 C1.67 1.66 1.34 2.32 1 3 C0.67 2.01 0.34 1.02 0 0 Z " fill="#534439"
          transform="translate(178,563)"/>
    <path d="M0 0 C1 4 1 4 1 4 Z " fill="#463D3B" transform="translate(585,498)"/>
    <path d="M0 0 C0.66 0.66 1.32 1.32 2 2 C1.01 1.67 0.02 1.34 -1 1 C-0.67 0.67 -0.34 0.34 0 0 Z " fill="#4D4239"
          transform="translate(787,296)"/>
    <path d="M0 0 C4 1 4 1 4 1 Z " fill="#463C35" transform="translate(776,296)"/>
    <path d="M0 0 C0.66 0 1.32 0 2 0 C1.67 0.66 1.34 1.32 1 2 C0.67 1.34 0.34 0.68 0 0 Z " fill="#595148"
          transform="translate(274,668)"/>
    <path d="M0 0 C3 1 3 1 3 1 Z " fill="#36A0D6" transform="translate(425,652)"/>
    <path d="M0 0 C0.66 0 1.32 0 2 0 C1.67 0.66 1.34 1.32 1 2 C0.67 1.34 0.34 0.68 0 0 Z " fill="#49849D"
          transform="translate(313,643)"/>
    <path d="" fill="#839290" transform="translate(0,0)"/>
    <path d="M0 0 C0.99 0.495 0.99 0.495 2 1 C1.01 1.495 1.01 1.495 0 2 C0 1.34 0 0.68 0 0 Z " fill="#6D8160"
          transform="translate(769,605)"/>
    <path d="M0 0 C3 1 3 1 3 1 Z " fill="#7CBB78" transform="translate(701,600)"/>
    <path d="M0 0 C3 1 3 1 3 1 Z " fill="#D9D9BF" transform="translate(355,599)"/>
    <path d="M0 0 C3 1 3 1 3 1 Z " fill="#DDDAAD" transform="translate(680,579)"/>
    <path d="" fill="#55423A" transform="translate(0,0)"/>
    <path d="M0 0 C3 1 3 1 3 1 Z " fill="#413935" transform="translate(420,520)"/>
    <path d="" fill="#504641" transform="translate(0,0)"/>
    <path d="M0 0 C3 1 3 1 3 1 Z " fill="#4D453F" transform="translate(765,436)"/>
    <path d="M0 0 C2 1 2 1 2 1 Z " fill="#45A8A0" transform="translate(480,670)"/>
    <path d="" fill="#4D7888" transform="translate(0,0)"/>
    <path d="M0 0 C2 1 2 1 2 1 Z " fill="#34A0D4" transform="translate(437,655)"/>
    <path d="M0 0 C2 1 2 1 2 1 Z " fill="#584E41" transform="translate(244,654)"/>
    <path d="M0 0 C2 1 2 1 2 1 Z " fill="#47AF5D" transform="translate(644,639)"/>
    <path d="M0 0 C2 1 2 1 2 1 Z " fill="#70B0CD" transform="translate(461,619)"/>
    <path d="M0 0 C2 1 2 1 2 1 Z " fill="#C7CCBC" transform="translate(323,612)"/>
    <path d="" fill="#574737" transform="translate(0,0)"/>
    <path d="M0 0 C2 1 2 1 2 1 Z " fill="#D6DBBD" transform="translate(494,610)"/>
    <path d="M0 0 C2 1 2 1 2 1 Z " fill="#78AF75" transform="translate(733,608)"/>
    <path d="" fill="#584736" transform="translate(0,0)"/>
    <path d="M0 0 C2 1 2 1 2 1 Z " fill="#768964" transform="translate(761,604)"/>
    <path d="M0 0 C2 1 2 1 2 1 Z " fill="#7FC07B" transform="translate(597,600)"/>
    <path d="M0 0 C2 1 2 1 2 1 Z " fill="#949F7E" transform="translate(748,599)"/>
    <path d="M0 0 C2 1 2 1 2 1 Z " fill="#D5D6BF" transform="translate(445,599)"/>
    <path d="" fill="#564739" transform="translate(0,0)"/>
    <path d="M0 0 C2 1 2 1 2 1 Z " fill="#D5D8C1" transform="translate(425,595)"/>
    <path d="M0 0 C2 1 2 1 2 1 Z " fill="#DCDAAF" transform="translate(690,581)"/>
    <path d="" fill="#54433A" transform="translate(0,0)"/>
    <path d="M0 0 C2 1 2 1 2 1 Z " fill="#453D37" transform="translate(573,514)"/>
    <path d="" fill="#46403A" transform="translate(0,0)"/>
    <path d="M0 0 C2 1 2 1 2 1 Z " fill="#56483F" transform="translate(201,483)"/>
    <path d="M0 0 C2 1 2 1 2 1 Z " fill="#574740" transform="translate(208,481)"/>
    <path d="M0 0 C2 1 2 1 2 1 Z " fill="#56453F" transform="translate(211,480)"/>
    <path d="M0 0 C2 1 2 1 2 1 Z " fill="#49403C" transform="translate(747,464)"/>
    <path d="" fill="#483D3A" transform="translate(0,0)"/>
    <path d="M0 0 C2 1 2 1 2 1 Z " fill="#514742" transform="translate(776,437)"/>
    <path d="M0 0 C2 1 2 1 2 1 Z " fill="#504842" transform="translate(780,436)"/>
    <path d="" fill="#463C39" transform="translate(0,0)"/>
    <path d="" fill="#3F3833" transform="translate(0,0)"/>
    <path d="M0 0 C2 1 2 1 2 1 Z " fill="#453D39" transform="translate(329,376)"/>
    <path d="" fill="#4B413A" transform="translate(0,0)"/>
    <path d="M0 0 C2 1 2 1 2 1 Z " fill="#443C39" transform="translate(336,370)"/>
    <path d="M0 0 C2 1 2 1 2 1 Z " fill="#453E3A" transform="translate(345,360)"/>
    <path d="M0 0 C2 1 2 1 2 1 Z " fill="#473D3A" transform="translate(368,345)"/>
    <path d="" fill="#463D38" transform="translate(0,0)"/>
    <path d="" fill="#4D423A" transform="translate(0,0)"/>
    <path d="M0 0 C2 1 2 1 2 1 Z " fill="#453C37" transform="translate(419,329)"/>
    <path d="M0 0 C2 1 2 1 2 1 Z " fill="#4A4039" transform="translate(746,304)"/>
    <path d="M0 0 C2 1 2 1 2 1 Z " fill="#4A4037" transform="translate(766,297)"/>
    <path d="M0 0 C2 1 2 1 2 1 Z " fill="#4B3F39" transform="translate(773,296)"/>
    <path d="M0 0 C2 1 2 1 2 1 Z " fill="#4B3F39" transform="translate(769,296)"/>
    <path d="" fill="#473D37" transform="translate(0,0)"/>
    <path d="" fill="#575F53" transform="translate(0,0)"/>
    <path d="" fill="#5E655A" transform="translate(0,0)"/>
    <path d="" fill="#5F6563" transform="translate(0,0)"/>
    <path d="" fill="#5C7677" transform="translate(0,0)"/>
    <path d="" fill="#5C7171" transform="translate(0,0)"/>
    <path d="" fill="#5A5E59" transform="translate(0,0)"/>
    <path d="" fill="#5A5A54" transform="translate(0,0)"/>
    <path d="" fill="#47A79C" transform="translate(0,0)"/>
    <path d="" fill="#46A5A0" transform="translate(0,0)"/>
    <path d="" fill="#44A6B3" transform="translate(0,0)"/>
    <path d="" fill="#42A6B6" transform="translate(0,0)"/>
    <path d="" fill="#58514B" transform="translate(0,0)"/>
    <path d="" fill="#43A4B6" transform="translate(0,0)"/>
    <path d="" fill="#59514A" transform="translate(0,0)"/>
    <path d="" fill="#46AE6A" transform="translate(0,0)"/>
    <path d="" fill="#41A5B6" transform="translate(0,0)"/>
    <path d="" fill="#3D9BC7" transform="translate(0,0)"/>
    <path d="" fill="#3A94C2" transform="translate(0,0)"/>
    <path d="" fill="#574B42" transform="translate(0,0)"/>
    <path d="" fill="#39A2CE" transform="translate(0,0)"/>
    <path d="" fill="#35A1D6" transform="translate(0,0)"/>
    <path d="" fill="#39A1D7" transform="translate(0,0)"/>
    <path d="" fill="#5B4D42" transform="translate(0,0)"/>
    <path d="" fill="#4DAD65" transform="translate(0,0)"/>
    <path d="" fill="#49B065" transform="translate(0,0)"/>
    <path d="" fill="#369ED5" transform="translate(0,0)"/>
    <path d="" fill="#38A0D6" transform="translate(0,0)"/>
    <path d="" fill="#49AB64" transform="translate(0,0)"/>
    <path d="" fill="#349AD5" transform="translate(0,0)"/>
    <path d="" fill="#5A4D42" transform="translate(0,0)"/>
    <path d="" fill="#4383A6" transform="translate(0,0)"/>
    <path d="" fill="#584B41" transform="translate(0,0)"/>
    <path d="" fill="#4AB364" transform="translate(0,0)"/>
    <path d="" fill="#574D40" transform="translate(0,0)"/>
    <path d="" fill="#47B161" transform="translate(0,0)"/>
    <path d="" fill="#4A7F96" transform="translate(0,0)"/>
    <path d="" fill="#584A3F" transform="translate(0,0)"/>
    <path d="" fill="#574C3D" transform="translate(0,0)"/>
    <path d="" fill="#4BB460" transform="translate(0,0)"/>
    <path d="" fill="#49B261" transform="translate(0,0)"/>
    <path d="" fill="#557F8E" transform="translate(0,0)"/>
    <path d="" fill="#43AE5E" transform="translate(0,0)"/>
    <path d="" fill="#584E3F" transform="translate(0,0)"/>
    <path d="" fill="#55483A" transform="translate(0,0)"/>
    <path d="" fill="#7AB7C7" transform="translate(0,0)"/>
    <path d="" fill="#73AEC7" transform="translate(0,0)"/>
    <path d="" fill="#6FAFC9" transform="translate(0,0)"/>
    <path d="" fill="#70A6C2" transform="translate(0,0)"/>
    <path d="" fill="#594738" transform="translate(0,0)"/>
    <path d="" fill="#6EB3CE" transform="translate(0,0)"/>
    <path d="" fill="#5A4638" transform="translate(0,0)"/>
    <path d="" fill="#72C07E" transform="translate(0,0)"/>
    <path d="" fill="#67A36B" transform="translate(0,0)"/>
    <path d="" fill="#72BA7B" transform="translate(0,0)"/>
    <path d="" fill="#7ABC83" transform="translate(0,0)"/>
    <path d="" fill="#86C385" transform="translate(0,0)"/>
    <path d="" fill="#74B0CA" transform="translate(0,0)"/>
    <path d="" fill="#BAC8BE" transform="translate(0,0)"/>
    <path d="" fill="#BDCBBE" transform="translate(0,0)"/>
    <path d="" fill="#C1C9BB" transform="translate(0,0)"/>
    <path d="" fill="#6BAE6E" transform="translate(0,0)"/>
    <path d="" fill="#6FB1CE" transform="translate(0,0)"/>
    <path d="" fill="#7CB5CF" transform="translate(0,0)"/>
    <path d="" fill="#594A3B" transform="translate(0,0)"/>
    <path d="" fill="#CAD1BD" transform="translate(0,0)"/>
    <path d="" fill="#89C787" transform="translate(0,0)"/>
    <path d="" fill="#77AFCB" transform="translate(0,0)"/>
    <path d="" fill="#74B0CF" transform="translate(0,0)"/>
    <path d="" fill="#84B9CC" transform="translate(0,0)"/>
    <path d="" fill="#6FADCC" transform="translate(0,0)"/>
    <path d="" fill="#73ACCA" transform="translate(0,0)"/>
    <path d="" fill="#DAD8BD" transform="translate(0,0)"/>
    <path d="" fill="#D8DBBE" transform="translate(0,0)"/>
    <path d="" fill="#D8D6BB" transform="translate(0,0)"/>
    <path d="" fill="#564639" transform="translate(0,0)"/>
    <path d="" fill="#D7DCC1" transform="translate(0,0)"/>
    <path d="" fill="#D0D8C2" transform="translate(0,0)"/>
    <path d="" fill="#CED4C5" transform="translate(0,0)"/>
    <path d="" fill="#6E805F" transform="translate(0,0)"/>
    <path d="" fill="#7DBB7D" transform="translate(0,0)"/>
    <path d="" fill="#D5DAC5" transform="translate(0,0)"/>
    <path d="" fill="#7CC07B" transform="translate(0,0)"/>
    <path d="" fill="#5B4737" transform="translate(0,0)"/>
    <path d="" fill="#81966D" transform="translate(0,0)"/>
    <path d="" fill="#85C682" transform="translate(0,0)"/>
    <path d="" fill="#D5D5C1" transform="translate(0,0)"/>
    <path d="" fill="#584B3C" transform="translate(0,0)"/>
    <path d="" fill="#D4DCC1" transform="translate(0,0)"/>
    <path d="" fill="#DAD9C1" transform="translate(0,0)"/>
    <path d="" fill="#7EC179" transform="translate(0,0)"/>
    <path d="" fill="#D9D8C0" transform="translate(0,0)"/>
    <path d="" fill="#7FC07B" transform="translate(0,0)"/>
    <path d="" fill="#5A4A3A" transform="translate(0,0)"/>
    <path d="" fill="#5E5F50" transform="translate(0,0)"/>
    <path d="" fill="#D4D5C3" transform="translate(0,0)"/>
    <path d="" fill="#D6D8C1" transform="translate(0,0)"/>
    <path d="" fill="#D4D6C2" transform="translate(0,0)"/>
    <path d="" fill="#92CB86" transform="translate(0,0)"/>
    <path d="" fill="#DBD6AF" transform="translate(0,0)"/>
    <path d="" fill="#D6D8AD" transform="translate(0,0)"/>
    <path d="" fill="#5C5B4D" transform="translate(0,0)"/>
    <path d="" fill="#DDD9B0" transform="translate(0,0)"/>
    <path d="" fill="#54463A" transform="translate(0,0)"/>
    <path d="" fill="#DDDEB3" transform="translate(0,0)"/>
    <path d="" fill="#DEDDB1" transform="translate(0,0)"/>
    <path d="" fill="#DFDAB0" transform="translate(0,0)"/>
    <path d="" fill="#534536" transform="translate(0,0)"/>
    <path d="" fill="#554438" transform="translate(0,0)"/>
    <path d="" fill="#DDDDAF" transform="translate(0,0)"/>
    <path d="" fill="#DDDEAF" transform="translate(0,0)"/>
    <path d="" fill="#DEDDAC" transform="translate(0,0)"/>
    <path d="" fill="#DCDEAB" transform="translate(0,0)"/>
    <path d="" fill="#DFDEAE" transform="translate(0,0)"/>
    <path d="" fill="#56463A" transform="translate(0,0)"/>
    <path d="" fill="#57534A" transform="translate(0,0)"/>
    <path d="" fill="#564439" transform="translate(0,0)"/>
    <path d="" fill="#544539" transform="translate(0,0)"/>
    <path d="" fill="#56463B" transform="translate(0,0)"/>
    <path d="" fill="#54453C" transform="translate(0,0)"/>
    <path d="" fill="#534539" transform="translate(0,0)"/>
    <path d="" fill="#554337" transform="translate(0,0)"/>
    <path d="" fill="#56443C" transform="translate(0,0)"/>
    <path d="" fill="#504942" transform="translate(0,0)"/>
    <path d="" fill="#564439" transform="translate(0,0)"/>
    <path d="" fill="#56443C" transform="translate(0,0)"/>
    <path d="" fill="#453B38" transform="translate(0,0)"/>
    <path d="" fill="#433B38" transform="translate(0,0)"/>
    <path d="" fill="#433736" transform="translate(0,0)"/>
    <path d="" fill="#48403B" transform="translate(0,0)"/>
    <path d="" fill="#463D39" transform="translate(0,0)"/>
    <path d="" fill="#453E3B" transform="translate(0,0)"/>
    <path d="" fill="#463C35" transform="translate(0,0)"/>
    <path d="" fill="#524842" transform="translate(0,0)"/>
    <path d="" fill="#473C3A" transform="translate(0,0)"/>
    <path d="" fill="#5A483F" transform="translate(0,0)"/>
    <path d="" fill="#453C38" transform="translate(0,0)"/>
    <path d="" fill="#463F3A" transform="translate(0,0)"/>
    <path d="" fill="#463E3A" transform="translate(0,0)"/>
    <path d="" fill="#564B46" transform="translate(0,0)"/>
    <path d="" fill="#55443A" transform="translate(0,0)"/>
    <path d="" fill="#4E4443" transform="translate(0,0)"/>
    <path d="" fill="#4E4842" transform="translate(0,0)"/>
    <path d="" fill="#453E3A" transform="translate(0,0)"/>
    <path d="" fill="#463C3A" transform="translate(0,0)"/>
    <path d="" fill="#4D413B" transform="translate(0,0)"/>
    <path d="" fill="#514840" transform="translate(0,0)"/>
    <path d="" fill="#433D3B" transform="translate(0,0)"/>
    <path d="" fill="#423B36" transform="translate(0,0)"/>
    <path d="" fill="#443B37" transform="translate(0,0)"/>
    <path d="" fill="#433A37" transform="translate(0,0)"/>
    <path d="" fill="#443B39" transform="translate(0,0)"/>
    <path d="" fill="#57443C" transform="translate(0,0)"/>
    <path d="" fill="#514640" transform="translate(0,0)"/>
    <path d="" fill="#504541" transform="translate(0,0)"/>
    <path d="" fill="#58433E" transform="translate(0,0)"/>
    <path d="" fill="#4D433E" transform="translate(0,0)"/>
    <path d="" fill="#524643" transform="translate(0,0)"/>
    <path d="" fill="#514642" transform="translate(0,0)"/>
    <path d="" fill="#514440" transform="translate(0,0)"/>
    <path d="" fill="#52443E" transform="translate(0,0)"/>
    <path d="" fill="#4A433D" transform="translate(0,0)"/>
    <path d="" fill="#554842" transform="translate(0,0)"/>
    <path d="" fill="#504640" transform="translate(0,0)"/>
    <path d="" fill="#4B443F" transform="translate(0,0)"/>
    <path d="" fill="#5B5751" transform="translate(0,0)"/>
    <path d="" fill="#4C423E" transform="translate(0,0)"/>
    <path d="" fill="#4C403B" transform="translate(0,0)"/>
    <path d="" fill="#4B403D" transform="translate(0,0)"/>
    <path d="" fill="#514743" transform="translate(0,0)"/>
    <path d="" fill="#4E4542" transform="translate(0,0)"/>
    <path d="" fill="#554C48" transform="translate(0,0)"/>
    <path d="" fill="#453C38" transform="translate(0,0)"/>
    <path d="" fill="#453A36" transform="translate(0,0)"/>
    <path d="" fill="#413A35" transform="translate(0,0)"/>
    <path d="" fill="#413732" transform="translate(0,0)"/>
    <path d="" fill="#443D37" transform="translate(0,0)"/>
    <path d="" fill="#4A403C" transform="translate(0,0)"/>
    <path d="" fill="#49423D" transform="translate(0,0)"/>
    <path d="" fill="#483E3C" transform="translate(0,0)"/>
    <path d="" fill="#413734" transform="translate(0,0)"/>
    <path d="" fill="#3E3733" transform="translate(0,0)"/>
    <path d="" fill="#554B42" transform="translate(0,0)"/>
    <path d="" fill="#564C45" transform="translate(0,0)"/>
    <path d="" fill="#473F3C" transform="translate(0,0)"/>
    <path d="" fill="#473E3A" transform="translate(0,0)"/>
    <path d="" fill="#534A43" transform="translate(0,0)"/>
    <path d="" fill="#463D3A" transform="translate(0,0)"/>
    <path d="" fill="#4A3F3A" transform="translate(0,0)"/>
    <path d="" fill="#483F37" transform="translate(0,0)"/>
    <path d="" fill="#493E38" transform="translate(0,0)"/>
    <path d="" fill="#514941" transform="translate(0,0)"/>
    <path d="" fill="#4B4038" transform="translate(0,0)"/>
    <path d="" fill="#423B38" transform="translate(0,0)"/>
    <path d="" fill="#423836" transform="translate(0,0)"/>
    <path d="" fill="#4A403B" transform="translate(0,0)"/>
    <path d="" fill="#4C433B" transform="translate(0,0)"/>
    <path d="" fill="#473E36" transform="translate(0,0)"/>
    <path d="" fill="#423D34" transform="translate(0,0)"/>
    <path d="" fill="#50453D" transform="translate(0,0)"/>
    <path d="" fill="#433A36" transform="translate(0,0)"/>
    <path d="" fill="#473F38" transform="translate(0,0)"/>
    <path d="" fill="#453C36" transform="translate(0,0)"/>
    <path d="" fill="#47403A" transform="translate(0,0)"/>
    <path d="" fill="#433C37" transform="translate(0,0)"/>
    <path d="" fill="#453F3C" transform="translate(0,0)"/>
    <path d="" fill="#515150" transform="translate(0,0)"/>
    <path d="" fill="#5D5854" transform="translate(0,0)"/>
    <path d="" fill="#493E3A" transform="translate(0,0)"/>
    <path d="" fill="#473E36" transform="translate(0,0)"/>
    <path d="" fill="#443B34" transform="translate(0,0)"/>
    <path d="" fill="#50463F" transform="translate(0,0)"/>
    <path d="" fill="#49403A" transform="translate(0,0)"/>
    <path d="" fill="#51463E" transform="translate(0,0)"/>
    <path d="" fill="#473D39" transform="translate(0,0)"/>
    <path d="" fill="#463C37" transform="translate(0,0)"/>
    <path d="" fill="#57524F" transform="translate(0,0)"/>
    <path d="" fill="#4E4239" transform="translate(0,0)"/>
    <path d="" fill="#443D37" transform="translate(0,0)"/>
    <path d="" fill="#433B36" transform="translate(0,0)"/>
    <path d="" fill="#454038" transform="translate(0,0)"/>
    <path d="" fill="#48403A" transform="translate(0,0)"/>
    <path d="" fill="#48403A" transform="translate(0,0)"/>
    <path d="" fill="#484039" transform="translate(0,0)"/>
    <path d="" fill="#463F3B" transform="translate(0,0)"/>
    <path d="" fill="#443F36" transform="translate(0,0)"/>
    <path d="" fill="#483E3B" transform="translate(0,0)"/>
    <path d="" fill="#50463E" transform="translate(0,0)"/>
    <path d="" fill="#463D37" transform="translate(0,0)"/>
    <path d="" fill="#443A36" transform="translate(0,0)"/>
    <path d="" fill="#473E38" transform="translate(0,0)"/>
    <path d="" fill="#4A3F3B" transform="translate(0,0)"/>
    <path d="" fill="#483F39" transform="translate(0,0)"/>
    <path d="" fill="#4D413A" transform="translate(0,0)"/>
    <path d="" fill="#4A413A" transform="translate(0,0)"/>
    <path d="" fill="#4D443C" transform="translate(0,0)"/>
    <path d="" fill="#4D423C" transform="translate(0,0)"/>
    <path d="" fill="#4D443D" transform="translate(0,0)"/>
    <path d="" fill="#4C3E38" transform="translate(0,0)"/>
    <path d="" fill="#4D423A" transform="translate(0,0)"/>
    <path d="" fill="#4F4440" transform="translate(0,0)"/>
    <path d="" fill="#4E433D" transform="translate(0,0)"/>
    <path d="" fill="#4B413B" transform="translate(0,0)"/>
    <path d="" fill="#4A3E38" transform="translate(0,0)"/>
    <path d="" fill="#4B3E38" transform="translate(0,0)"/>
    <path d="" fill="#4C3F39" transform="translate(0,0)"/>
    <path d="" fill="#4B443E" transform="translate(0,0)"/>
    <path d="" fill="#4B4039" transform="translate(0,0)"/>
    <path d="" fill="#50413C" transform="translate(0,0)"/>
    <path d="" fill="#4E443E" transform="translate(0,0)"/>
    <path d="" fill="#4C433C" transform="translate(0,0)"/>
    <path d="" fill="#4F453F" transform="translate(0,0)"/>
    <path d="" fill="#534740" transform="translate(0,0)"/>
    <path d="" fill="#4C3F39" transform="translate(0,0)"/>
    <path d="" fill="#493E38" transform="translate(0,0)"/>
    <path d="" fill="#4B4038" transform="translate(0,0)"/>
    <path d="" fill="#564D45" transform="translate(0,0)"/>
    <path d="" fill="#4C4038" transform="translate(0,0)"/>
    <path d="" fill="#4D413A" transform="translate(0,0)"/>
    <path d="" fill="#4D413A" transform="translate(0,0)"/>
    <path d="" fill="#4E453F" transform="translate(0,0)"/>
    <path d="" fill="#584B44" transform="translate(0,0)"/>
    <path d="" fill="#595049" transform="translate(0,0)"/>
    <path d="" fill="#676663" transform="translate(0,0)"/>
    <path d="" fill="#646364" transform="translate(0,0)"/>
    <path d="" fill="#626362" transform="translate(0,0)"/>
    <path d="" fill="#696869" transform="translate(0,0)"/>
</svg>
